<svg width="1440" height="480" viewBox="0 0 1440 480" fill="none" xmlns="http://www.w3.org/2000/svg">
<path d="M0 476H870.391L873 480H0V476Z" fill="#F05A22"/>
<path d="M0 439H402.863C413.852 439 424.74 441.106 434.937 445.205L506.191 473.846C516.303 477.911 527.101 480 538 480H0V439Z" fill="#F3F3FA"/>
<circle cx="18.5" cy="18.5" r="2.5" fill="#F05A22"/>
<circle cx="18.5" cy="39.5" r="2.5" fill="#F05A22"/>
<circle cx="18.5" cy="60.5" r="2.5" fill="#F05A22"/>
<circle cx="18.5" cy="81.5" r="2.5" fill="#F05A22"/>
<circle cx="18.5" cy="102.5" r="2.5" fill="#F05A22"/>
<circle cx="18.5" cy="123.5" r="2.5" fill="#F05A22"/>
<circle cx="18.5" cy="144.5" r="2.5" fill="#F05A22"/>
<circle cx="18.5" cy="165.5" r="2.5" fill="#F05A22"/>
<circle cx="39.5" cy="18.5" r="2.5" fill="#F05A22"/>
<circle cx="60.5" cy="18.5" r="2.5" fill="#F05A22"/>
<circle cx="81.5" cy="18.5" r="2.5" fill="#F05A22"/>
<circle cx="39.5" cy="39.5" r="2.5" fill="#F05A22"/>
<circle cx="60.5" cy="39.5" r="2.5" fill="#F05A22"/>
<circle cx="81.5" cy="39.5" r="2.5" fill="#F05A22"/>
<circle cx="39.5" cy="60.5" r="2.5" fill="#F05A22"/>
<circle cx="60.5" cy="60.5" r="2.5" fill="#F05A22"/>
<circle cx="81.5" cy="60.5" r="2.5" fill="#F05A22"/>
<circle cx="39.5" cy="81.5" r="2.5" fill="#F05A22"/>
<circle cx="60.5" cy="81.5" r="2.5" fill="#F05A22"/>
<circle cx="81.5" cy="81.5" r="2.5" fill="#F05A22"/>
<circle cx="39.5" cy="102.5" r="2.5" fill="#F05A22"/>
<circle cx="60.5" cy="102.5" r="2.5" fill="#F05A22"/>
<circle cx="81.5" cy="102.5" r="2.5" fill="#F05A22"/>
<circle cx="39.5" cy="123.5" r="2.5" fill="#F05A22"/>
<circle cx="60.5" cy="123.5" r="2.5" fill="#F05A22"/>
<circle cx="81.5" cy="123.5" r="2.5" fill="#F05A22"/>
<circle cx="39.5" cy="144.5" r="2.5" fill="#F05A22"/>
<circle cx="60.5" cy="144.5" r="2.5" fill="#F05A22"/>
<circle cx="81.5" cy="144.5" r="2.5" fill="#F05A22"/>
<circle cx="39.5" cy="165.5" r="2.5" fill="#F05A22"/>
<circle cx="60.5" cy="165.5" r="2.5" fill="#F05A22"/>
<circle cx="81.5" cy="165.5" r="2.5" fill="#F05A22"/>
<circle cx="1282.5" cy="73.5" r="2.5" transform="rotate(-90 1282.5 73.5)" fill="#FDB913"/>
<circle cx="1303.5" cy="73.5" r="2.5" transform="rotate(-90 1303.5 73.5)" fill="#FDB913"/>
<circle cx="1324.5" cy="73.5" r="2.5" transform="rotate(-90 1324.5 73.5)" fill="#FDB913"/>
<circle cx="1345.5" cy="73.5" r="2.5" transform="rotate(-90 1345.5 73.5)" fill="#FDB913"/>
<circle cx="1366.5" cy="73.5" r="2.5" transform="rotate(-90 1366.5 73.5)" fill="#FDB913"/>
<circle cx="1387.5" cy="73.5" r="2.5" transform="rotate(-90 1387.5 73.5)" fill="#FDB913"/>
<circle cx="1408.5" cy="73.5" r="2.5" transform="rotate(-90 1408.5 73.5)" fill="#FDB913"/>
<circle cx="1429.5" cy="73.5" r="2.5" transform="rotate(-90 1429.5 73.5)" fill="#FDB913"/>
<circle cx="1282.5" cy="52.5" r="2.5" transform="rotate(-90 1282.5 52.5)" fill="#FDB913"/>
<circle cx="1282.5" cy="31.5" r="2.5" transform="rotate(-90 1282.5 31.5)" fill="#FDB913"/>
<circle cx="1282.5" cy="10.5" r="2.5" transform="rotate(-90 1282.5 10.5)" fill="#FDB913"/>
<circle cx="1303.5" cy="52.5" r="2.5" transform="rotate(-90 1303.5 52.5)" fill="#FDB913"/>
<circle cx="1303.5" cy="31.5" r="2.5" transform="rotate(-90 1303.5 31.5)" fill="#FDB913"/>
<circle cx="1303.5" cy="10.5" r="2.5" transform="rotate(-90 1303.5 10.5)" fill="#FDB913"/>
<circle cx="1324.5" cy="52.5" r="2.5" transform="rotate(-90 1324.5 52.5)" fill="#FDB913"/>
<circle cx="1324.5" cy="31.5" r="2.5" transform="rotate(-90 1324.5 31.5)" fill="#FDB913"/>
<circle cx="1324.5" cy="10.5" r="2.5" transform="rotate(-90 1324.5 10.5)" fill="#FDB913"/>
<circle cx="1345.5" cy="52.5" r="2.5" transform="rotate(-90 1345.5 52.5)" fill="#FDB913"/>
<circle cx="1345.5" cy="31.5" r="2.5" transform="rotate(-90 1345.5 31.5)" fill="#FDB913"/>
<circle cx="1345.5" cy="10.5" r="2.5" transform="rotate(-90 1345.5 10.5)" fill="#FDB913"/>
<circle cx="1366.5" cy="52.5" r="2.5" transform="rotate(-90 1366.5 52.5)" fill="#FDB913"/>
<circle cx="1366.5" cy="31.5" r="2.5" transform="rotate(-90 1366.5 31.5)" fill="#FDB913"/>
<circle cx="1366.5" cy="10.5" r="2.5" transform="rotate(-90 1366.5 10.5)" fill="#FDB913"/>
<circle cx="1387.5" cy="52.5" r="2.5" transform="rotate(-90 1387.5 52.5)" fill="#FDB913"/>
<circle cx="1387.5" cy="31.5" r="2.5" transform="rotate(-90 1387.5 31.5)" fill="#FDB913"/>
<circle cx="1387.5" cy="10.5" r="2.5" transform="rotate(-90 1387.5 10.5)" fill="#FDB913"/>
<circle cx="1408.5" cy="52.5" r="2.5" transform="rotate(-90 1408.5 52.5)" fill="#FDB913"/>
<circle cx="1408.5" cy="31.5" r="2.5" transform="rotate(-90 1408.5 31.5)" fill="#FDB913"/>
<circle cx="1408.5" cy="10.5" r="2.5" transform="rotate(-90 1408.5 10.5)" fill="#FDB913"/>
<circle cx="1429.5" cy="52.5" r="2.5" transform="rotate(-90 1429.5 52.5)" fill="#FDB913"/>
<circle cx="1429.5" cy="31.5" r="2.5" transform="rotate(-90 1429.5 31.5)" fill="#FDB913"/>
<circle cx="1429.5" cy="10.5" r="2.5" transform="rotate(-90 1429.5 10.5)" fill="#FDB913"/>
<rect width="8" height="24" transform="matrix(1 0 0.574291 0.818651 1098 460)" fill="#FDB913"/>
<rect width="8" height="24" transform="matrix(1 0 0.574291 0.818651 1118 460)" fill="#FDB913"/>
<rect width="8" height="24" transform="matrix(1 0 0.574291 0.818651 1138 460)" fill="#FDB913"/>
<rect width="8" height="24" transform="matrix(1 0 0.574291 0.818651 1158 460)" fill="#FDB913"/>
<rect width="8" height="24" transform="matrix(1 0 0.574291 0.818651 1178 460)" fill="#FDB913"/>
<rect width="8" height="24" transform="matrix(1 0 0.574291 0.818651 1198 460)" fill="#FDB913"/>
<rect width="8" height="24" transform="matrix(1 0 0.574291 0.818651 1218 460)" fill="#FDB913"/>
<rect width="8" height="24" transform="matrix(1 0 0.574291 0.818651 1238 460)" fill="#FDB913"/>
<rect width="8" height="24" transform="matrix(1 0 0.574291 0.818651 1258 460)" fill="#FDB913"/>
<rect width="8" height="24" transform="matrix(1 0 0.574291 0.818651 1278 460)" fill="#FDB913"/>
<rect width="8" height="24" transform="matrix(1 0 0.574291 0.818651 1298 460)" fill="#FDB913"/>
<rect width="8" height="24" transform="matrix(1 0 0.574291 0.818651 1318 460)" fill="#FDB913"/>
<rect width="8" height="24" transform="matrix(1 0 0.574291 0.818651 1338 460)" fill="#FDB913"/>
<rect width="8" height="24" transform="matrix(1 0 0.574291 0.818651 1358 460)" fill="#FDB913"/>
<rect width="8" height="24" transform="matrix(1 0 0.574291 0.818651 1378 460)" fill="#FDB913"/>
<rect width="8" height="24" transform="matrix(1 0 0.574291 0.818651 1398 460)" fill="#FDB913"/>
<rect width="8" height="24" transform="matrix(1 0 0.574291 0.818651 1418 460)" fill="#FDB913"/>
<rect width="3.68511" height="4.88609" transform="matrix(1 0 0.574291 0.818651 874 476)" fill="#F05A22"/>
<rect width="3.68511" height="4.88609" transform="matrix(1 0 0.574291 0.818651 880.685 476)" fill="#F05A22"/>
<rect width="3.68511" height="4.88609" transform="matrix(1 0 0.574291 0.818651 887.37 476)" fill="#F05A22"/>
<rect width="3.68511" height="4.88609" transform="matrix(1 0 0.574291 0.818651 894.055 476)" fill="#F05A22"/>
<rect width="3.68511" height="4.88609" transform="matrix(1 0 0.574291 0.818651 900.74 476)" fill="#F05A22"/>
<rect width="3.68511" height="4.88609" transform="matrix(1 0 0.574291 0.818651 907.426 476)" fill="#F05A22"/>
<rect width="3.68511" height="4.88609" transform="matrix(1 0 0.574291 0.818651 914.111 476)" fill="#F05A22"/>
<rect width="3.68511" height="4.88609" transform="matrix(1 0 0.574291 0.818651 920.796 476)" fill="#F05A22"/>
<rect width="3.68511" height="4.88609" transform="matrix(1 0 0.574291 0.818651 927.481 476)" fill="#F05A22"/>
<g filter="url(#filter0_d_238_1092)">
<path d="M620.632 99.6492C619.826 100.405 619.786 101.671 620.541 102.476C621.297 103.282 622.563 103.322 623.368 102.566L620.632 99.6492ZM680.229 57.3865L681.324 59.0597L680.229 57.3865ZM725.052 32.1986L724.384 30.3133L725.052 32.1986ZM779.591 110.067C780.259 110.947 781.513 111.119 782.393 110.452C783.273 109.784 783.446 108.53 782.778 107.65L779.591 110.067ZM681.324 59.0597C696.237 49.2937 709.206 39.9301 725.719 34.0839L724.384 30.3133C707.301 36.3613 693.84 46.0818 679.133 55.7134L681.324 59.0597ZM743 77.73C744.471 78.9652 744.695 79.9919 744.599 80.9461C744.479 82.154 743.823 83.4908 742.879 85.2528C742.03 86.8388 740.898 88.8493 740.546 90.9151C740.36 92.0055 740.374 93.172 740.757 94.3615C741.141 95.5514 741.857 96.6459 742.902 97.6486L745.672 94.7627C745.025 94.1421 744.714 93.5964 744.564 93.1334C744.415 92.6702 744.39 92.1711 744.489 91.5876C744.708 90.3057 745.445 88.935 746.406 87.1408C747.272 85.5224 748.366 83.4798 748.58 81.3435C748.818 78.9535 747.959 76.6713 745.573 74.6671L743 77.73ZM623.368 102.566C643.277 83.8876 662.572 71.3402 681.324 59.0597L679.133 55.7134C660.4 67.9812 640.827 80.7011 620.632 99.6492L623.368 102.566ZM725.719 34.0839C727.252 33.5414 728.398 33.228 729.223 33.0871C730.124 32.9333 730.358 33.0378 730.272 33.0027C730.173 32.9624 729.972 32.8451 729.82 32.5984C729.675 32.365 729.671 32.1716 729.671 32.1367C729.672 32.1131 729.673 32.1849 729.606 32.3811C729.542 32.5699 729.434 32.8207 729.265 33.1392C728.566 34.4622 727.165 36.3454 725.199 38.7001C723.26 41.0231 720.876 43.685 718.296 46.5459C713.168 52.2322 707.273 58.6973 702.923 64.5272C700.749 67.4402 698.897 70.277 697.715 72.8438C696.575 75.3211 695.855 77.9735 696.595 80.2868L700.405 79.0677C700.145 78.2561 700.297 76.8006 701.349 74.5168C702.359 72.3223 704.02 69.7447 706.129 66.9195C710.342 61.2732 716.088 54.9673 721.266 49.2247C723.84 46.3711 726.274 43.6541 728.27 41.2633C730.239 38.9042 731.888 36.7388 732.802 35.0079C733.241 34.1764 733.651 33.1945 733.67 32.2167C733.681 31.6876 733.579 31.0725 733.222 30.4951C732.857 29.9042 732.328 29.5204 731.776 29.2964C730.785 28.8939 729.617 28.9621 728.55 29.1442C727.407 29.3393 726.02 29.7341 724.384 30.3133L725.719 34.0839ZM742.902 97.6486C745.119 99.7768 748.086 100.377 750.994 100.574C752.47 100.674 754.04 100.675 755.61 100.67C757.202 100.664 758.808 100.653 760.456 100.718C766.941 100.974 773.778 102.401 779.591 110.067L782.778 107.65C775.959 98.6563 767.729 97.0025 760.614 96.721C758.862 96.6517 757.161 96.6644 755.597 96.6697C754.011 96.675 752.578 96.6726 751.265 96.5836C748.595 96.4027 746.837 95.881 745.672 94.7627L742.902 97.6486ZM696.595 80.2868C697.271 82.3984 698.641 83.8527 700.483 84.6766C702.233 85.4596 704.293 85.6249 706.384 85.4921C710.551 85.2273 715.659 83.7089 720.619 82.0981C725.696 80.4491 730.661 78.6887 734.89 77.7158C736.994 77.2316 738.791 76.9742 740.233 77.0003C741.696 77.0268 742.537 77.3404 743 77.73L745.573 74.6671C744.109 73.4371 742.198 73.0353 740.305 73.001C738.391 72.9663 736.23 73.3029 733.993 73.8177C729.538 74.8428 724.288 76.7008 719.383 78.2937C714.36 79.9249 709.718 81.2722 706.13 81.5001C704.344 81.6136 703.025 81.432 702.116 81.0253C701.299 80.6595 700.729 80.0811 700.405 79.0677L696.595 80.2868Z" fill="#FDB913"/>
<circle cx="787.5" cy="116.677" r="3.5" fill="#FDB913"/>
</g>
<rect width="34.4732" height="34.4732" transform="matrix(0.707107 -0.707106 0.707107 0.707106 1345 375.222)" fill="#FDB913"/>
<rect width="18.1072" height="18.1072" transform="matrix(0.707106 -0.707107 0.707106 0.707107 1368.39 337.794)" fill="#FDB913"/>
<rect width="10.6198" height="10.6198" transform="matrix(0.707108 -0.707105 0.707108 0.707105 1365.93 315.263)" fill="#FDB913"/>
<rect width="47.8188" height="47.8188" transform="matrix(0.707107 -0.707107 -0.707107 -0.707107 139.813 83.9693)" fill="#FDB913"/>
<rect width="25.117" height="25.117" transform="matrix(0.707107 -0.707107 -0.707107 -0.707107 191.73 51.5208)" fill="#FDB913"/>
<rect width="14.731" height="14.731" transform="matrix(0.707107 -0.707107 -0.707107 -0.707107 222.983 54.9364)" fill="#FDB913"/>
<path d="M1.12403 436.696C0.298438 436.627 -0.426364 437.241 -0.494864 438.067C-0.563363 438.892 0.0503809 439.617 0.875971 439.686L1.12403 436.696ZM172.076 460.681L172.522 459.248L172.076 460.681ZM294.5 440.5L294.186 439.033L294.5 440.5ZM339 445.171C339.828 445.171 340.5 444.499 340.5 443.671C340.5 442.842 339.828 442.171 339 442.171V445.171ZM264.213 439.691C265.097 439.691 265.696 440.045 266.29 440.771C266.963 441.593 267.483 442.702 268.212 444.122C268.894 445.451 269.737 446.991 271.007 448.214C272.327 449.485 274.063 450.372 276.42 450.498L276.58 447.502C274.974 447.417 273.913 446.847 273.087 446.053C272.211 445.209 271.559 444.073 270.881 442.752C270.25 441.523 269.544 440.009 268.611 438.87C267.6 437.635 266.212 436.691 264.213 436.691V439.691ZM294.814 441.967C300.423 440.766 305.531 441.501 312.325 442.614C319.096 443.725 327.366 445.171 339 445.171V442.171C327.634 442.171 319.577 440.763 312.81 439.654C306.065 438.548 300.423 437.698 294.186 439.033L294.814 441.967ZM276.42 450.498C280.924 450.738 284.426 448.633 287.307 446.563C288.82 445.477 290.03 444.502 291.34 443.626C292.608 442.779 293.73 442.199 294.814 441.967L294.186 439.033C292.549 439.384 291.052 440.21 289.673 441.132C288.337 442.025 286.873 443.182 285.557 444.127C282.781 446.121 280.002 447.684 276.58 447.502L276.42 450.498ZM244.838 454.168C247.316 454.168 249.492 453.051 251.37 451.589C253.243 450.131 254.959 448.217 256.517 446.408C258.117 444.55 259.527 442.835 260.907 441.551C262.321 440.234 263.381 439.691 264.213 439.691V436.691C262.163 436.691 260.365 437.957 258.863 439.355C257.326 440.785 255.761 442.689 254.244 444.45C252.684 446.261 251.139 447.966 249.526 449.222C247.917 450.475 246.381 451.168 244.838 451.168V454.168ZM232.948 436.09C233.02 436.09 233.159 436.102 233.413 436.379C233.694 436.686 234.004 437.209 234.335 437.996C235.008 439.594 235.545 441.702 236.256 444.061C236.937 446.32 237.768 448.771 239.014 450.667C240.287 452.606 242.14 454.168 244.838 454.168V451.168C243.513 451.168 242.474 450.47 241.521 449.02C240.54 447.526 239.81 445.457 239.129 443.196C238.478 441.037 237.855 438.625 237.101 436.833C236.719 435.926 236.249 435.036 235.627 434.355C234.976 433.643 234.087 433.09 232.948 433.09V436.09ZM163.898 429.427C163.805 429.427 163.709 429.404 163.627 429.364C163.55 429.327 163.515 429.29 163.516 429.291C163.534 429.31 163.627 429.43 163.75 429.756C163.994 430.407 164.196 431.444 164.36 432.859C164.685 435.679 164.802 439.433 165.048 443.443C165.291 447.38 165.658 451.521 166.509 454.861C166.934 456.532 167.5 458.088 168.288 459.342C169.082 460.604 170.162 461.656 171.63 462.113L172.522 459.248C171.949 459.07 171.379 458.622 170.828 457.746C170.273 456.861 169.802 455.64 169.416 454.121C168.642 451.082 168.285 447.194 168.043 443.259C167.805 439.398 167.677 435.44 167.34 432.515C167.172 431.058 166.938 429.715 166.559 428.703C166.37 428.198 166.105 427.667 165.707 427.242C165.278 426.783 164.666 426.427 163.898 426.427V429.427ZM132.47 464.078C134.158 464.078 135.829 463.37 137.395 462.344C138.976 461.309 140.58 459.866 142.166 458.197C145.337 454.861 148.596 450.45 151.622 446.11C154.689 441.713 157.465 437.468 159.816 434.22C160.984 432.607 161.991 431.319 162.817 430.446C163.231 430.007 163.559 429.717 163.804 429.546C164.085 429.35 164.091 429.427 163.898 429.427V426.427C163.165 426.427 162.533 426.774 162.087 427.086C161.605 427.422 161.117 427.876 160.636 428.385C159.671 429.407 158.569 430.826 157.386 432.461C155.033 435.711 152.136 440.129 149.161 444.394C146.146 448.718 142.995 452.97 139.991 456.131C138.49 457.711 137.065 458.975 135.752 459.834C134.423 460.704 133.333 461.078 132.47 461.078V464.078ZM127.192 424.858C127.114 424.858 127.015 424.837 126.924 424.787C126.839 424.74 126.807 424.695 126.814 424.704C126.846 424.746 126.951 424.93 127.054 425.378C127.257 426.263 127.336 427.641 127.309 429.464C127.254 433.095 126.799 437.893 126.486 442.874C126.179 447.768 126.011 452.82 126.599 456.676C126.892 458.595 127.393 460.379 128.278 461.719C129.213 463.136 130.605 464.078 132.47 464.078V461.078C131.784 461.078 131.263 460.795 130.782 460.067C130.25 459.262 129.833 457.982 129.565 456.224C129.032 452.726 129.172 447.974 129.48 443.062C129.783 438.238 130.252 433.231 130.308 429.509C130.336 427.654 130.267 425.968 129.978 424.708C129.835 424.084 129.608 423.425 129.205 422.892C128.758 422.303 128.075 421.858 127.192 421.858V424.858ZM85.2805 475.5C87.7229 475.5 90.12 474.562 92.4015 473.083C94.6864 471.601 96.9433 469.521 99.1366 467.093C103.521 462.238 107.81 455.81 111.702 449.463C113.652 446.282 115.513 443.105 117.243 440.137C118.977 437.163 120.574 434.409 122.01 432.051C123.453 429.683 124.699 427.771 125.73 426.461C126.247 425.803 126.669 425.351 126.997 425.075C127.376 424.757 127.415 424.858 127.192 424.858V421.858C126.31 421.858 125.573 422.354 125.068 422.778C124.512 423.244 123.943 423.88 123.372 424.606C122.223 426.066 120.898 428.11 119.448 430.49C117.993 432.88 116.377 435.665 114.651 438.626C112.922 441.593 111.075 444.745 109.144 447.895C105.273 454.209 101.101 460.441 96.9101 465.082C94.8158 467.401 92.7565 469.277 90.7695 470.565C88.7791 471.856 86.9485 472.5 85.2805 472.5V475.5ZM85.7322 420.5C85.5981 420.5 85.4155 420.452 85.2598 420.327C85.1274 420.22 85.101 420.127 85.1177 420.169C85.1644 420.288 85.2352 420.634 85.2217 421.334C85.1955 422.688 84.8784 424.718 84.3527 427.294C83.8321 429.845 83.1296 432.829 82.3699 436.059C81.6124 439.279 80.8006 442.733 80.0712 446.19C78.6211 453.064 77.4594 460.112 77.7412 465.485C77.8815 468.16 78.3864 470.618 79.5565 472.445C80.7962 474.382 82.7162 475.5 85.2805 475.5V472.5C83.7345 472.5 82.769 471.899 82.0832 470.828C81.3278 469.648 80.8672 467.808 80.7371 465.328C80.478 460.388 81.5559 453.686 83.0066 446.81C83.7277 443.392 84.5316 439.971 85.2902 436.746C86.0467 433.53 86.7607 430.498 87.2922 427.894C87.8186 425.314 88.1891 423.046 88.2211 421.392C88.2367 420.589 88.1792 419.753 87.9073 419.066C87.7646 418.705 87.5312 418.304 87.1402 417.989C86.7257 417.656 86.2327 417.5 85.7322 417.5V420.5ZM46.6777 456.628C50.5558 456.628 54.639 454.009 58.4753 450.605C62.3874 447.134 66.3736 442.539 70.0778 438.014C73.8249 433.437 77.2317 428.999 80.1356 425.623C81.58 423.944 82.8404 422.599 83.8924 421.684C84.4184 421.227 84.855 420.91 85.2045 420.714C85.3768 420.618 85.5094 420.561 85.6052 420.53C85.7013 420.499 85.7399 420.5 85.7322 420.5V417.5C85.0012 417.5 84.3166 417.773 83.7385 418.097C83.1433 418.43 82.5342 418.89 81.924 419.42C80.7038 420.481 79.3299 421.959 77.8612 423.667C74.9388 427.065 71.4035 431.659 67.7564 436.114C64.0665 440.621 60.2064 445.058 56.4842 448.361C52.6861 451.731 49.3466 453.628 46.6777 453.628V456.628ZM40.0723 432.53C40.1652 432.53 40.1266 432.548 40.0586 432.497C40.0045 432.456 40.0343 432.447 40.0885 432.592C40.218 432.937 40.2891 433.608 40.2256 434.709C40.1646 435.764 39.9956 437.022 39.7881 438.437C39.5839 439.83 39.3436 441.369 39.1618 442.902C38.8049 445.912 38.623 449.235 39.5232 451.851C39.9882 453.202 40.7641 454.434 42.0049 455.315C43.2443 456.196 44.8091 456.628 46.6777 456.628V453.628C45.2727 453.628 44.3582 453.307 43.7422 452.869C43.1277 452.433 42.6723 451.782 42.3599 450.874C41.705 448.972 41.7835 446.27 42.141 443.256C42.3163 441.776 42.5466 440.303 42.7564 438.872C42.9629 437.464 43.1511 436.085 43.2206 434.882C43.2874 433.723 43.262 432.511 42.898 431.539C42.7054 431.025 42.3892 430.498 41.8686 430.104C41.334 429.7 40.7083 429.53 40.0723 429.53V432.53ZM0.875971 439.686C11.2573 440.547 19.7683 438.709 26.3864 436.674C29.6661 435.666 32.5432 434.588 34.8399 433.805C37.231 432.99 38.9031 432.53 40.0723 432.53V429.53C38.326 429.53 36.1883 430.176 33.8717 430.966C31.4607 431.788 28.7323 432.815 25.5049 433.807C19.1087 435.773 10.9991 437.515 1.12403 436.696L0.875971 439.686ZM171.63 462.113C173.042 462.552 174.456 462.165 175.69 461.505C176.93 460.841 178.183 459.8 179.407 458.583C181.86 456.146 184.47 452.727 186.96 449.337C189.484 445.9 191.881 442.497 193.995 439.924C195.05 438.639 195.986 437.623 196.784 436.939C197.181 436.599 197.51 436.372 197.77 436.235C197.897 436.168 197.995 436.13 198.064 436.11C198.132 436.09 198.162 436.09 198.16 436.09V433.09C196.915 433.09 195.756 433.87 194.832 434.661C193.835 435.515 192.769 436.689 191.676 438.02C189.493 440.677 187.007 444.204 184.542 447.561C182.043 450.964 179.558 454.204 177.292 456.455C176.157 457.583 175.144 458.394 174.274 458.86C173.396 459.33 172.853 459.351 172.522 459.248L171.63 462.113ZM198.16 436.09C198.21 436.09 198.387 436.093 198.715 436.499C199.06 436.926 199.423 437.624 199.795 438.626C200.543 440.634 201.145 443.314 201.88 446.2C202.593 448.997 203.427 451.972 204.636 454.258C205.83 456.516 207.651 458.569 210.49 458.569V455.569C209.366 455.569 208.324 454.813 207.288 452.856C206.268 450.927 205.507 448.282 204.788 445.459C204.092 442.726 203.428 439.786 202.607 437.579C202.195 436.473 201.697 435.416 201.048 434.613C200.383 433.79 199.431 433.09 198.16 433.09V436.09ZM210.49 458.569C213.126 458.569 215.6 456.749 217.725 454.615C219.918 452.412 222.086 449.512 224.095 446.702C226.138 443.845 228 441.108 229.674 439.049C230.508 438.022 231.242 437.233 231.873 436.712C232.549 436.154 232.884 436.09 232.948 436.09V433.09C231.801 433.09 230.774 433.729 229.962 434.4C229.105 435.108 228.225 436.075 227.346 437.156C225.594 439.312 223.63 442.195 221.655 444.957C219.645 447.767 217.602 450.487 215.599 452.498C213.526 454.58 211.817 455.569 210.49 455.569V458.569Z" fill="#F05A22"/>
<path d="M348 442C346.895 442 346 442.895 346 444C346 445.105 346.895 446 348 446L348 442ZM388 446C389.105 446 390 445.105 390 444C390 442.895 389.105 442 388 442L388 446ZM349.667 446C350.771 446 351.667 445.105 351.667 444C351.667 442.895 350.771 442 349.667 442L349.667 446ZM359.667 442C358.562 442 357.667 442.895 357.667 444C357.667 445.105 358.562 446 359.667 446L359.667 442ZM363 446C364.105 446 365 445.105 365 444C365 442.895 364.105 442 363 442L363 446ZM373 442C371.895 442 371 442.895 371 444C371 445.105 371.895 446 373 446L373 442ZM376.333 446C377.438 446 378.333 445.105 378.333 444C378.333 442.895 377.438 442 376.333 442L376.333 446ZM386.333 442C385.229 442 384.333 442.895 384.333 444C384.333 445.105 385.229 446 386.333 446L386.333 442ZM348 446L349.667 446L349.667 442L348 442L348 446ZM359.667 446L363 446L363 442L359.667 442L359.667 446ZM373 446L376.333 446L376.333 442L373 442L373 446ZM386.333 446L388 446L388 442L386.333 442L386.333 446Z" fill="#F05A22"/>
<path d="M60 480V0H-60V480H60Z" fill="#FDB913" mask="url(#path-1-inside-1_238_1092)"/>
<defs>
<filter id="filter0_d_238_1092" x="616" y="28.9999" width="179" height="99.1774" filterUnits="userSpaceOnUse" color-interpolation-filters="sRGB">
<feFlood flood-opacity="0" result="BackgroundImageFix"/>
<feColorMatrix in="SourceAlpha" type="matrix" values="0 0 0 0 0 0 0 0 0 0 0 0 0 0 0 0 0 0 127 0" result="hardAlpha"/>
<feOffset dy="4"/>
<feGaussianBlur stdDeviation="2"/>
<feComposite in2="hardAlpha" operator="out"/>
<feColorMatrix type="matrix" values="0 0 0 0 0 0 0 0 0 0 0 0 0 0 0 0 0 0 0.1 0"/>
<feBlend mode="normal" in2="BackgroundImageFix" result="effect1_dropShadow_238_1092"/>
<feBlend mode="normal" in="SourceGraphic" in2="effect1_dropShadow_238_1092" result="shape"/>
</filter>
</defs>
</svg>
