<svg width="1441" height="450" viewBox="0 0 1441 450" fill="none" xmlns="http://www.w3.org/2000/svg">
<path d="M1 446H871.391L874 450H1V446Z" fill="#003371"/>
<path d="M1 409H403.863C414.852 409 425.74 411.106 435.937 415.205L507.191 443.846C517.303 447.911 528.101 450 539 450H1V409Z" fill="#F3F3FA"/>
<circle cx="19.5" cy="18.5" r="2.5" fill="#003371"/>
<circle cx="19.5" cy="39.5" r="2.5" fill="#003371"/>
<circle cx="19.5" cy="60.5" r="2.5" fill="#003371"/>
<circle cx="19.5" cy="81.5" r="2.5" fill="#003371"/>
<circle cx="19.5" cy="102.5" r="2.5" fill="#003371"/>
<circle cx="19.5" cy="123.5" r="2.5" fill="#003371"/>
<circle cx="19.5" cy="144.5" r="2.5" fill="#003371"/>
<circle cx="19.5" cy="165.5" r="2.5" fill="#003371"/>
<circle cx="40.5" cy="18.5" r="2.5" fill="#003371"/>
<circle cx="61.5" cy="18.5" r="2.5" fill="#003371"/>
<circle cx="82.5" cy="18.5" r="2.5" fill="#003371"/>
<circle cx="40.5" cy="39.5" r="2.5" fill="#003371"/>
<circle cx="61.5" cy="39.5" r="2.5" fill="#003371"/>
<circle cx="82.5" cy="39.5" r="2.5" fill="#003371"/>
<circle cx="40.5" cy="60.5" r="2.5" fill="#003371"/>
<circle cx="61.5" cy="60.5" r="2.5" fill="#003371"/>
<circle cx="82.5" cy="60.5" r="2.5" fill="#003371"/>
<circle cx="40.5" cy="81.5" r="2.5" fill="#003371"/>
<circle cx="61.5" cy="81.5" r="2.5" fill="#003371"/>
<circle cx="82.5" cy="81.5" r="2.5" fill="#003371"/>
<circle cx="40.5" cy="102.5" r="2.5" fill="#003371"/>
<circle cx="61.5" cy="102.5" r="2.5" fill="#003371"/>
<circle cx="82.5" cy="102.5" r="2.5" fill="#003371"/>
<circle cx="40.5" cy="123.5" r="2.5" fill="#003371"/>
<circle cx="61.5" cy="123.5" r="2.5" fill="#003371"/>
<circle cx="82.5" cy="123.5" r="2.5" fill="#003371"/>
<circle cx="40.5" cy="144.5" r="2.5" fill="#003371"/>
<circle cx="61.5" cy="144.5" r="2.5" fill="#003371"/>
<circle cx="82.5" cy="144.5" r="2.5" fill="#003371"/>
<circle cx="40.5" cy="165.5" r="2.5" fill="#003371"/>
<circle cx="61.5" cy="165.5" r="2.5" fill="#003371"/>
<circle cx="82.5" cy="165.5" r="2.5" fill="#003371"/>
<circle cx="1283.5" cy="73.5" r="2.5" transform="rotate(-90 1283.5 73.5)" fill="#D928AB"/>
<circle cx="1304.5" cy="73.5" r="2.5" transform="rotate(-90 1304.5 73.5)" fill="#D928AB"/>
<circle cx="1325.5" cy="73.5" r="2.5" transform="rotate(-90 1325.5 73.5)" fill="#D928AB"/>
<circle cx="1346.5" cy="73.5" r="2.5" transform="rotate(-90 1346.5 73.5)" fill="#D928AB"/>
<circle cx="1367.5" cy="73.5" r="2.5" transform="rotate(-90 1367.5 73.5)" fill="#D928AB"/>
<circle cx="1388.5" cy="73.5" r="2.5" transform="rotate(-90 1388.5 73.5)" fill="#D928AB"/>
<circle cx="1409.5" cy="73.5" r="2.5" transform="rotate(-90 1409.5 73.5)" fill="#D928AB"/>
<circle cx="1430.5" cy="73.5" r="2.5" transform="rotate(-90 1430.5 73.5)" fill="#D928AB"/>
<circle cx="1283.5" cy="52.5" r="2.5" transform="rotate(-90 1283.5 52.5)" fill="#D928AB"/>
<circle cx="1283.5" cy="31.5" r="2.5" transform="rotate(-90 1283.5 31.5)" fill="#D928AB"/>
<circle cx="1283.5" cy="10.5" r="2.5" transform="rotate(-90 1283.5 10.5)" fill="#D928AB"/>
<circle cx="1304.5" cy="52.5" r="2.5" transform="rotate(-90 1304.5 52.5)" fill="#D928AB"/>
<circle cx="1304.5" cy="31.5" r="2.5" transform="rotate(-90 1304.5 31.5)" fill="#D928AB"/>
<circle cx="1304.5" cy="10.5" r="2.5" transform="rotate(-90 1304.5 10.5)" fill="#D928AB"/>
<circle cx="1325.5" cy="52.5" r="2.5" transform="rotate(-90 1325.5 52.5)" fill="#D928AB"/>
<circle cx="1325.5" cy="31.5" r="2.5" transform="rotate(-90 1325.5 31.5)" fill="#D928AB"/>
<circle cx="1325.5" cy="10.5" r="2.5" transform="rotate(-90 1325.5 10.5)" fill="#D928AB"/>
<circle cx="1346.5" cy="52.5" r="2.5" transform="rotate(-90 1346.5 52.5)" fill="#D928AB"/>
<circle cx="1346.5" cy="31.5" r="2.5" transform="rotate(-90 1346.5 31.5)" fill="#D928AB"/>
<circle cx="1346.5" cy="10.5" r="2.5" transform="rotate(-90 1346.5 10.5)" fill="#D928AB"/>
<circle cx="1367.5" cy="52.5" r="2.5" transform="rotate(-90 1367.5 52.5)" fill="#D928AB"/>
<circle cx="1367.5" cy="31.5" r="2.5" transform="rotate(-90 1367.5 31.5)" fill="#D928AB"/>
<circle cx="1367.5" cy="10.5" r="2.5" transform="rotate(-90 1367.5 10.5)" fill="#D928AB"/>
<circle cx="1388.5" cy="52.5" r="2.5" transform="rotate(-90 1388.5 52.5)" fill="#D928AB"/>
<circle cx="1388.5" cy="31.5" r="2.5" transform="rotate(-90 1388.5 31.5)" fill="#D928AB"/>
<circle cx="1388.5" cy="10.5" r="2.5" transform="rotate(-90 1388.5 10.5)" fill="#D928AB"/>
<circle cx="1409.5" cy="52.5" r="2.5" transform="rotate(-90 1409.5 52.5)" fill="#D928AB"/>
<circle cx="1409.5" cy="31.5" r="2.5" transform="rotate(-90 1409.5 31.5)" fill="#D928AB"/>
<circle cx="1409.5" cy="10.5" r="2.5" transform="rotate(-90 1409.5 10.5)" fill="#D928AB"/>
<circle cx="1430.5" cy="52.5" r="2.5" transform="rotate(-90 1430.5 52.5)" fill="#D928AB"/>
<circle cx="1430.5" cy="31.5" r="2.5" transform="rotate(-90 1430.5 31.5)" fill="#D928AB"/>
<circle cx="1430.5" cy="10.5" r="2.5" transform="rotate(-90 1430.5 10.5)" fill="#D928AB"/>
<rect width="8" height="24" transform="matrix(1 0 0.574291 0.818651 1099 430)" fill="#D928AB"/>
<rect width="8" height="24" transform="matrix(1 0 0.574291 0.818651 1119 430)" fill="#D928AB"/>
<rect width="8" height="24" transform="matrix(1 0 0.574291 0.818651 1139 430)" fill="#D928AB"/>
<rect width="8" height="24" transform="matrix(1 0 0.574291 0.818651 1159 430)" fill="#D928AB"/>
<rect width="8" height="24" transform="matrix(1 0 0.574291 0.818651 1179 430)" fill="#D928AB"/>
<rect width="8" height="24" transform="matrix(1 0 0.574291 0.818651 1199 430)" fill="#D928AB"/>
<rect width="8" height="24" transform="matrix(1 0 0.574291 0.818651 1219 430)" fill="#D928AB"/>
<rect width="8" height="24" transform="matrix(1 0 0.574291 0.818651 1239 430)" fill="#D928AB"/>
<rect width="8" height="24" transform="matrix(1 0 0.574291 0.818651 1259 430)" fill="#D928AB"/>
<rect width="8" height="24" transform="matrix(1 0 0.574291 0.818651 1279 430)" fill="#D928AB"/>
<rect width="8" height="24" transform="matrix(1 0 0.574291 0.818651 1299 430)" fill="#D928AB"/>
<rect width="8" height="24" transform="matrix(1 0 0.574291 0.818651 1319 430)" fill="#D928AB"/>
<rect width="8" height="24" transform="matrix(1 0 0.574291 0.818651 1339 430)" fill="#D928AB"/>
<rect width="8" height="24" transform="matrix(1 0 0.574291 0.818651 1359 430)" fill="#D928AB"/>
<rect width="8" height="24" transform="matrix(1 0 0.574291 0.818651 1379 430)" fill="#D928AB"/>
<rect width="8" height="24" transform="matrix(1 0 0.574291 0.818651 1399 430)" fill="#D928AB"/>
<rect width="8" height="24" transform="matrix(1 0 0.574291 0.818651 1419 430)" fill="#D928AB"/>
<rect width="3.68511" height="4.88609" transform="matrix(1 0 0.574291 0.818651 875 446)" fill="#003371"/>
<rect width="3.68511" height="4.88609" transform="matrix(1 0 0.574291 0.818651 881.685 446)" fill="#003371"/>
<rect width="3.68511" height="4.88609" transform="matrix(1 0 0.574291 0.818651 888.37 446)" fill="#003371"/>
<rect width="3.68511" height="4.88609" transform="matrix(1 0 0.574291 0.818651 895.055 446)" fill="#003371"/>
<rect width="3.68511" height="4.88609" transform="matrix(1 0 0.574291 0.818651 901.74 446)" fill="#003371"/>
<rect width="3.68511" height="4.88609" transform="matrix(1 0 0.574291 0.818651 908.426 446)" fill="#003371"/>
<rect width="3.68511" height="4.88609" transform="matrix(1 0 0.574291 0.818651 915.111 446)" fill="#003371"/>
<rect width="3.68511" height="4.88609" transform="matrix(1 0 0.574291 0.818651 921.796 446)" fill="#003371"/>
<rect width="3.68511" height="4.88609" transform="matrix(1 0 0.574291 0.818651 928.481 446)" fill="#003371"/>
<g filter="url(#filter0_d_35_4552)">
<path d="M621.632 99.6492C620.826 100.405 620.786 101.671 621.541 102.476C622.297 103.282 623.563 103.322 624.368 102.566L621.632 99.6492ZM681.229 57.3865L682.324 59.0597L681.229 57.3865ZM726.052 32.1986L725.384 30.3133L726.052 32.1986ZM780.591 110.067C781.259 110.947 782.513 111.119 783.393 110.452C784.273 109.784 784.446 108.53 783.778 107.65L780.591 110.067ZM682.324 59.0597C697.237 49.2937 710.206 39.9301 726.719 34.0839L725.384 30.3133C708.301 36.3613 694.84 46.0818 680.133 55.7134L682.324 59.0597ZM744 77.73C745.471 78.9652 745.695 79.9919 745.599 80.9461C745.479 82.154 744.823 83.4908 743.879 85.2528C743.03 86.8388 741.898 88.8493 741.546 90.9151C741.36 92.0055 741.374 93.172 741.757 94.3615C742.141 95.5514 742.857 96.6459 743.902 97.6486L746.672 94.7627C746.025 94.1421 745.714 93.5964 745.564 93.1334C745.415 92.6702 745.39 92.1711 745.489 91.5876C745.708 90.3057 746.445 88.935 747.406 87.1408C748.272 85.5224 749.366 83.4798 749.58 81.3435C749.818 78.9535 748.959 76.6713 746.573 74.6671L744 77.73ZM624.368 102.566C644.277 83.8876 663.572 71.3402 682.324 59.0597L680.133 55.7134C661.4 67.9812 641.827 80.7011 621.632 99.6492L624.368 102.566ZM726.719 34.0839C728.252 33.5414 729.398 33.228 730.223 33.0871C731.124 32.9333 731.358 33.0378 731.272 33.0027C731.173 32.9624 730.972 32.8451 730.82 32.5984C730.675 32.365 730.671 32.1716 730.671 32.1367C730.672 32.1131 730.673 32.1849 730.606 32.3811C730.542 32.5699 730.434 32.8207 730.265 33.1392C729.566 34.4622 728.165 36.3454 726.199 38.7001C724.26 41.0231 721.876 43.685 719.296 46.5459C714.168 52.2322 708.273 58.6973 703.923 64.5272C701.749 67.4402 699.897 70.277 698.715 72.8438C697.575 75.3211 696.855 77.9735 697.595 80.2868L701.405 79.0677C701.145 78.2561 701.297 76.8006 702.349 74.5168C703.359 72.3223 705.02 69.7447 707.129 66.9195C711.342 61.2732 717.088 54.9673 722.266 49.2247C724.84 46.3711 727.274 43.6541 729.27 41.2633C731.239 38.9042 732.888 36.7388 733.802 35.0079C734.241 34.1764 734.651 33.1945 734.67 32.2167C734.681 31.6876 734.579 31.0725 734.222 30.4951C733.857 29.9042 733.328 29.5204 732.776 29.2964C731.785 28.8939 730.617 28.9621 729.55 29.1442C728.407 29.3393 727.02 29.7341 725.384 30.3133L726.719 34.0839ZM743.902 97.6486C746.119 99.7768 749.086 100.377 751.994 100.574C753.47 100.674 755.04 100.675 756.61 100.67C758.202 100.664 759.808 100.653 761.456 100.718C767.941 100.974 774.778 102.401 780.591 110.067L783.778 107.65C776.959 98.6563 768.729 97.0025 761.614 96.721C759.862 96.6517 758.161 96.6644 756.597 96.6697C755.011 96.675 753.578 96.6726 752.265 96.5836C749.595 96.4027 747.837 95.881 746.672 94.7627L743.902 97.6486ZM697.595 80.2868C698.271 82.3984 699.641 83.8527 701.483 84.6766C703.233 85.4596 705.293 85.6249 707.384 85.4921C711.551 85.2273 716.659 83.7089 721.619 82.0981C726.696 80.4491 731.661 78.6887 735.89 77.7158C737.994 77.2316 739.791 76.9742 741.233 77.0003C742.696 77.0268 743.537 77.3404 744 77.73L746.573 74.6671C745.109 73.4371 743.198 73.0353 741.305 73.001C739.391 72.9663 737.23 73.3029 734.993 73.8177C730.538 74.8428 725.288 76.7008 720.383 78.2937C715.36 79.9249 710.718 81.2722 707.13 81.5001C705.344 81.6136 704.025 81.432 703.116 81.0253C702.299 80.6595 701.729 80.0811 701.405 79.0677L697.595 80.2868Z" fill="#D928AB"/>
<circle cx="788.5" cy="116.677" r="3.5" fill="#D928AB"/>
</g>
<rect x="1346" y="345.222" width="34.4732" height="34.4732" transform="rotate(-45 1346 345.222)" fill="#D928AB"/>
<rect x="1369.39" y="307.794" width="18.1072" height="18.1072" transform="rotate(-45 1369.39 307.794)" fill="#D928AB"/>
<rect x="1366.93" y="285.263" width="10.6198" height="10.6198" transform="rotate(-45 1366.93 285.263)" fill="#D928AB"/>
<rect width="47.8188" height="47.8188" transform="matrix(0.707107 -0.707107 -0.707107 -0.707107 140.813 83.9692)" fill="#D928AB"/>
<rect width="25.117" height="25.117" transform="matrix(0.707107 -0.707107 -0.707107 -0.707107 192.73 51.5208)" fill="#D928AB"/>
<rect width="14.731" height="14.731" transform="matrix(0.707107 -0.707107 -0.707107 -0.707107 223.983 54.9364)" fill="#D928AB"/>
<path d="M2.12403 406.696C1.29844 406.627 0.573636 407.241 0.505136 408.067C0.436637 408.892 1.05038 409.617 1.87597 409.686L2.12403 406.696ZM173.076 430.681L173.522 429.248L173.076 430.681ZM295.5 410.5L295.186 409.033L295.5 410.5ZM340 415.171C340.828 415.171 341.5 414.499 341.5 413.671C341.5 412.842 340.828 412.171 340 412.171V415.171ZM265.213 409.691C266.097 409.691 266.696 410.045 267.29 410.771C267.963 411.593 268.483 412.702 269.212 414.122C269.894 415.451 270.737 416.991 272.007 418.214C273.327 419.485 275.063 420.372 277.42 420.498L277.58 417.502C275.974 417.417 274.913 416.847 274.087 416.053C273.211 415.209 272.559 414.073 271.881 412.752C271.25 411.523 270.544 410.009 269.611 408.87C268.6 407.635 267.212 406.691 265.213 406.691V409.691ZM295.814 411.967C301.423 410.766 306.531 411.501 313.325 412.614C320.096 413.725 328.366 415.171 340 415.171V412.171C328.634 412.171 320.577 410.763 313.81 409.654C307.065 408.548 301.423 407.698 295.186 409.033L295.814 411.967ZM277.42 420.498C281.924 420.738 285.426 418.633 288.307 416.563C289.82 415.477 291.03 414.502 292.34 413.626C293.608 412.779 294.73 412.199 295.814 411.967L295.186 409.033C293.549 409.384 292.052 410.21 290.673 411.132C289.337 412.025 287.873 413.182 286.557 414.127C283.781 416.121 281.002 417.684 277.58 417.502L277.42 420.498ZM245.838 424.168C248.316 424.168 250.492 423.051 252.37 421.589C254.243 420.131 255.959 418.217 257.517 416.408C259.117 414.55 260.527 412.835 261.907 411.551C263.321 410.234 264.381 409.691 265.213 409.691V406.691C263.163 406.691 261.365 407.957 259.863 409.355C258.326 410.785 256.761 412.689 255.244 414.45C253.684 416.261 252.139 417.966 250.526 419.222C248.917 420.475 247.381 421.168 245.838 421.168V424.168ZM233.948 406.09C234.02 406.09 234.159 406.102 234.413 406.379C234.694 406.686 235.004 407.209 235.335 407.996C236.008 409.594 236.545 411.702 237.256 414.061C237.937 416.32 238.768 418.771 240.014 420.667C241.287 422.606 243.14 424.168 245.838 424.168V421.168C244.513 421.168 243.474 420.47 242.521 419.02C241.54 417.526 240.81 415.457 240.129 413.196C239.478 411.037 238.855 408.625 238.101 406.833C237.719 405.926 237.249 405.036 236.627 404.355C235.976 403.643 235.087 403.09 233.948 403.09V406.09ZM164.898 399.427C164.805 399.427 164.709 399.404 164.627 399.364C164.55 399.327 164.515 399.29 164.516 399.291C164.534 399.31 164.627 399.43 164.75 399.756C164.994 400.407 165.196 401.444 165.36 402.859C165.685 405.679 165.802 409.433 166.048 413.443C166.291 417.38 166.658 421.521 167.509 424.861C167.934 426.532 168.5 428.088 169.288 429.342C170.082 430.604 171.162 431.656 172.63 432.113L173.522 429.248C172.949 429.07 172.379 428.622 171.828 427.746C171.273 426.861 170.802 425.64 170.416 424.121C169.642 421.082 169.285 417.194 169.043 413.259C168.805 409.398 168.677 405.44 168.34 402.515C168.172 401.058 167.938 399.715 167.559 398.703C167.37 398.198 167.105 397.667 166.707 397.242C166.278 396.783 165.666 396.427 164.898 396.427V399.427ZM133.47 434.078C135.158 434.078 136.829 433.37 138.395 432.344C139.976 431.309 141.58 429.866 143.166 428.197C146.337 424.861 149.596 420.45 152.622 416.11C155.689 411.713 158.465 407.468 160.816 404.22C161.984 402.607 162.991 401.319 163.817 400.446C164.231 400.007 164.559 399.717 164.804 399.546C165.085 399.35 165.091 399.427 164.898 399.427V396.427C164.165 396.427 163.533 396.774 163.087 397.086C162.605 397.422 162.117 397.876 161.636 398.385C160.671 399.407 159.569 400.826 158.386 402.461C156.033 405.711 153.136 410.129 150.161 414.394C147.146 418.718 143.995 422.97 140.991 426.131C139.49 427.711 138.065 428.975 136.752 429.834C135.423 430.704 134.333 431.078 133.47 431.078V434.078ZM128.192 394.858C128.114 394.858 128.015 394.837 127.924 394.787C127.839 394.74 127.807 394.695 127.814 394.704C127.846 394.746 127.951 394.93 128.054 395.378C128.257 396.263 128.336 397.641 128.309 399.464C128.254 403.095 127.799 407.893 127.486 412.874C127.179 417.768 127.011 422.82 127.599 426.676C127.892 428.595 128.393 430.379 129.278 431.719C130.213 433.136 131.605 434.078 133.47 434.078V431.078C132.784 431.078 132.263 430.795 131.782 430.067C131.25 429.262 130.833 427.982 130.565 426.224C130.032 422.726 130.172 417.974 130.48 413.062C130.783 408.238 131.252 403.231 131.308 399.509C131.336 397.654 131.267 395.968 130.978 394.708C130.835 394.084 130.608 393.425 130.205 392.892C129.758 392.303 129.075 391.858 128.192 391.858V394.858ZM86.2805 445.5C88.7229 445.5 91.12 444.562 93.4015 443.083C95.6864 441.601 97.9433 439.521 100.137 437.093C104.521 432.238 108.81 425.81 112.702 419.463C114.652 416.282 116.513 413.105 118.243 410.137C119.977 407.163 121.574 404.409 123.01 402.051C124.453 399.683 125.699 397.771 126.73 396.461C127.247 395.803 127.669 395.351 127.997 395.075C128.376 394.757 128.415 394.858 128.192 394.858V391.858C127.31 391.858 126.573 392.354 126.068 392.778C125.512 393.244 124.943 393.88 124.372 394.606C123.223 396.066 121.898 398.11 120.448 400.49C118.993 402.88 117.377 405.665 115.651 408.626C113.922 411.593 112.075 414.745 110.144 417.895C106.273 424.209 102.101 430.441 97.9101 435.082C95.8158 437.401 93.7565 439.277 91.7695 440.565C89.7791 441.856 87.9485 442.5 86.2805 442.5V445.5ZM86.7322 390.5C86.5981 390.5 86.4155 390.452 86.2598 390.327C86.1274 390.22 86.101 390.127 86.1177 390.169C86.1644 390.288 86.2352 390.634 86.2217 391.334C86.1955 392.688 85.8784 394.718 85.3527 397.294C84.8321 399.845 84.1296 402.829 83.3699 406.059C82.6124 409.279 81.8006 412.733 81.0712 416.19C79.6211 423.064 78.4594 430.112 78.7412 435.485C78.8815 438.16 79.3864 440.618 80.5565 442.445C81.7962 444.382 83.7162 445.5 86.2805 445.5V442.5C84.7345 442.5 83.769 441.899 83.0832 440.828C82.3278 439.648 81.8672 437.808 81.7371 435.328C81.478 430.388 82.5559 423.686 84.0066 416.81C84.7277 413.392 85.5316 409.971 86.2902 406.746C87.0467 403.53 87.7607 400.498 88.2922 397.894C88.8186 395.314 89.1891 393.046 89.2211 391.392C89.2367 390.589 89.1792 389.753 88.9073 389.066C88.7646 388.705 88.5312 388.304 88.1402 387.989C87.7257 387.656 87.2327 387.5 86.7322 387.5V390.5ZM47.6777 426.628C51.5558 426.628 55.639 424.009 59.4753 420.605C63.3874 417.134 67.3736 412.539 71.0778 408.014C74.8249 403.437 78.2317 398.999 81.1356 395.623C82.58 393.944 83.8404 392.599 84.8924 391.684C85.4184 391.227 85.855 390.91 86.2045 390.714C86.3768 390.618 86.5094 390.561 86.6052 390.53C86.7013 390.499 86.7399 390.5 86.7322 390.5V387.5C86.0012 387.5 85.3166 387.773 84.7385 388.097C84.1433 388.43 83.5342 388.89 82.924 389.42C81.7038 390.481 80.3299 391.959 78.8612 393.667C75.9388 397.065 72.4035 401.659 68.7564 406.114C65.0665 410.621 61.2064 415.058 57.4842 418.361C53.6861 421.731 50.3466 423.628 47.6777 423.628V426.628ZM41.0723 402.53C41.1652 402.53 41.1266 402.548 41.0586 402.497C41.0045 402.456 41.0343 402.447 41.0885 402.592C41.218 402.937 41.2891 403.608 41.2256 404.709C41.1646 405.764 40.9956 407.022 40.7881 408.437C40.5839 409.83 40.3436 411.369 40.1618 412.902C39.8049 415.912 39.623 419.235 40.5232 421.851C40.9882 423.202 41.7641 424.434 43.0049 425.315C44.2443 426.196 45.8091 426.628 47.6777 426.628V423.628C46.2727 423.628 45.3582 423.307 44.7422 422.869C44.1277 422.433 43.6723 421.782 43.3599 420.874C42.705 418.972 42.7835 416.27 43.141 413.256C43.3163 411.776 43.5466 410.303 43.7564 408.872C43.9629 407.464 44.1511 406.085 44.2206 404.882C44.2874 403.723 44.262 402.511 43.898 401.539C43.7054 401.025 43.3892 400.498 42.8686 400.104C42.334 399.7 41.7083 399.53 41.0723 399.53V402.53ZM1.87597 409.686C12.2573 410.547 20.7683 408.709 27.3864 406.674C30.6661 405.666 33.5432 404.588 35.8399 403.805C38.231 402.99 39.9031 402.53 41.0723 402.53V399.53C39.326 399.53 37.1883 400.176 34.8717 400.966C32.4607 401.788 29.7323 402.815 26.5049 403.807C20.1087 405.773 11.9991 407.515 2.12403 406.696L1.87597 409.686ZM172.63 432.113C174.042 432.552 175.456 432.165 176.69 431.505C177.93 430.841 179.183 429.8 180.407 428.583C182.86 426.146 185.47 422.727 187.96 419.337C190.484 415.9 192.881 412.497 194.995 409.924C196.05 408.639 196.986 407.623 197.784 406.939C198.181 406.599 198.51 406.372 198.77 406.235C198.897 406.168 198.995 406.13 199.064 406.11C199.132 406.09 199.162 406.09 199.16 406.09V403.09C197.915 403.09 196.756 403.87 195.832 404.661C194.835 405.515 193.769 406.689 192.676 408.02C190.493 410.677 188.007 414.204 185.542 417.561C183.043 420.964 180.558 424.204 178.292 426.455C177.157 427.583 176.144 428.394 175.274 428.86C174.396 429.33 173.853 429.351 173.522 429.248L172.63 432.113ZM199.16 406.09C199.21 406.09 199.387 406.093 199.715 406.499C200.06 406.926 200.423 407.624 200.795 408.626C201.543 410.634 202.145 413.314 202.88 416.2C203.593 418.997 204.427 421.972 205.636 424.258C206.83 426.516 208.651 428.569 211.49 428.569V425.569C210.366 425.569 209.324 424.813 208.288 422.856C207.268 420.927 206.507 418.282 205.788 415.459C205.092 412.726 204.428 409.786 203.607 407.579C203.195 406.473 202.697 405.416 202.048 404.613C201.383 403.79 200.431 403.09 199.16 403.09V406.09ZM211.49 428.569C214.126 428.569 216.6 426.749 218.725 424.615C220.918 422.412 223.086 419.512 225.095 416.702C227.138 413.845 229 411.108 230.674 409.049C231.508 408.022 232.242 407.233 232.873 406.712C233.549 406.154 233.884 406.09 233.948 406.09V403.09C232.801 403.09 231.774 403.729 230.962 404.4C230.105 405.108 229.225 406.075 228.346 407.156C226.594 409.312 224.63 412.195 222.655 414.957C220.645 417.767 218.602 420.487 216.599 422.498C214.526 424.58 212.817 425.569 211.49 425.569V428.569Z" fill="#003371"/>
<path d="M349 412C347.895 412 347 412.895 347 414C347 415.105 347.895 416 349 416L349 412ZM389 416C390.105 416 391 415.105 391 414C391 412.895 390.105 412 389 412L389 416ZM350.667 416C351.771 416 352.667 415.105 352.667 414C352.667 412.895 351.771 412 350.667 412L350.667 416ZM360.667 412C359.562 412 358.667 412.895 358.667 414C358.667 415.105 359.562 416 360.667 416L360.667 412ZM364 416C365.105 416 366 415.105 366 414C366 412.895 365.105 412 364 412L364 416ZM374 412C372.895 412 372 412.895 372 414C372 415.105 372.895 416 374 416L374 412ZM377.333 416C378.438 416 379.333 415.105 379.333 414C379.333 412.895 378.438 412 377.333 412L377.333 416ZM387.333 412C386.229 412 385.333 412.895 385.333 414C385.333 415.105 386.229 416 387.333 416L387.333 412ZM349 416L350.667 416L350.667 412L349 412L349 416ZM360.667 416L364 416L364 412L360.667 412L360.667 416ZM374 416L377.333 416L377.333 412L374 412L374 416ZM387.333 416L389 416L389 412L387.333 412L387.333 416Z" fill="#003371"/>
<path d="M61 450V0H-59V450H61Z" fill="#D928AB" mask="url(#path-1-inside-1_35_4552)"/>
<defs>
<filter id="filter0_d_35_4552" x="617" y="28.9999" width="179" height="99.1774" filterUnits="userSpaceOnUse" color-interpolation-filters="sRGB">
<feFlood flood-opacity="0" result="BackgroundImageFix"/>
<feColorMatrix in="SourceAlpha" type="matrix" values="0 0 0 0 0 0 0 0 0 0 0 0 0 0 0 0 0 0 127 0" result="hardAlpha"/>
<feOffset dy="4"/>
<feGaussianBlur stdDeviation="2"/>
<feComposite in2="hardAlpha" operator="out"/>
<feColorMatrix type="matrix" values="0 0 0 0 0 0 0 0 0 0 0 0 0 0 0 0 0 0 0.1 0"/>
<feBlend mode="normal" in2="BackgroundImageFix" result="effect1_dropShadow_35_4552"/>
<feBlend mode="normal" in="SourceGraphic" in2="effect1_dropShadow_35_4552" result="shape"/>
</filter>
</defs>
</svg>
