<svg width="68" height="152" viewBox="0 0 68 152" fill="none" xmlns="http://www.w3.org/2000/svg">
<circle cx="2.5" cy="2.5" r="2.5" fill="#FDB913"/>
<circle cx="2.5" cy="23.5" r="2.5" fill="#FDB913"/>
<circle cx="2.5" cy="44.5" r="2.5" fill="#FDB913"/>
<circle cx="2.5" cy="65.5" r="2.5" fill="#FDB913"/>
<circle cx="2.5" cy="86.5" r="2.5" fill="#FDB913"/>
<circle cx="2.5" cy="107.5" r="2.5" fill="#FDB913"/>
<circle cx="2.5" cy="128.5" r="2.5" fill="#FDB913"/>
<circle cx="2.5" cy="149.5" r="2.5" fill="#FDB913"/>
<circle cx="23.5" cy="2.5" r="2.5" fill="#FDB913"/>
<circle cx="44.5" cy="2.5" r="2.5" fill="#FDB913"/>
<circle cx="65.5" cy="2.5" r="2.5" fill="#FDB913"/>
<circle cx="23.5" cy="23.5" r="2.5" fill="#FDB913"/>
<circle cx="44.5" cy="23.5" r="2.5" fill="#FDB913"/>
<circle cx="65.5" cy="23.5" r="2.5" fill="#FDB913"/>
<circle cx="23.5" cy="44.5" r="2.5" fill="#FDB913"/>
<circle cx="44.5" cy="44.5" r="2.5" fill="#FDB913"/>
<circle cx="65.5" cy="44.5" r="2.5" fill="#FDB913"/>
<circle cx="23.5" cy="65.5" r="2.5" fill="#FDB913"/>
<circle cx="44.5" cy="65.5" r="2.5" fill="#FDB913"/>
<circle cx="65.5" cy="65.5" r="2.5" fill="#FDB913"/>
<circle cx="23.5" cy="86.5" r="2.5" fill="#FDB913"/>
<circle cx="44.5" cy="86.5" r="2.5" fill="#FDB913"/>
<circle cx="65.5" cy="86.5" r="2.5" fill="#FDB913"/>
<circle cx="23.5" cy="107.5" r="2.5" fill="#FDB913"/>
<circle cx="44.5" cy="107.5" r="2.5" fill="#FDB913"/>
<circle cx="65.5" cy="107.5" r="2.5" fill="#FDB913"/>
<circle cx="23.5" cy="128.5" r="2.5" fill="#FDB913"/>
<circle cx="44.5" cy="128.5" r="2.5" fill="#FDB913"/>
<circle cx="65.5" cy="128.5" r="2.5" fill="#FDB913"/>
<circle cx="23.5" cy="149.5" r="2.5" fill="#FDB913"/>
<circle cx="44.5" cy="149.5" r="2.5" fill="#FDB913"/>
<circle cx="65.5" cy="149.5" r="2.5" fill="#FDB913"/>
</svg>
