<svg width="343" height="20" viewBox="0 0 343 20" fill="none" xmlns="http://www.w3.org/2000/svg">
<rect width="8" height="24" transform="matrix(1 0 0.574291 0.818651 0.969849 0)" fill="#FDB913"/>
<rect width="8" height="24" transform="matrix(1 0 0.574291 0.818651 20.9698 0)" fill="#FDB913"/>
<rect width="8" height="24" transform="matrix(1 0 0.574291 0.818651 40.9698 0)" fill="#FDB913"/>
<rect width="8" height="24" transform="matrix(1 0 0.574291 0.818651 60.9698 0)" fill="#FDB913"/>
<rect width="8" height="24" transform="matrix(1 0 0.574291 0.818651 80.9698 0)" fill="#FDB913"/>
<rect width="8" height="24" transform="matrix(1 0 0.574291 0.818651 100.97 0)" fill="#FDB913"/>
<rect width="8" height="24" transform="matrix(1 0 0.574291 0.818651 120.97 0)" fill="#FDB913"/>
<rect width="8" height="24" transform="matrix(1 0 0.574291 0.818651 140.97 0)" fill="#FDB913"/>
<rect width="8" height="24" transform="matrix(1 0 0.574291 0.818651 160.97 0)" fill="#FDB913"/>
<rect width="8" height="24" transform="matrix(1 0 0.574291 0.818651 180.97 0)" fill="#FDB913"/>
<rect width="8" height="24" transform="matrix(1 0 0.574291 0.818651 200.97 0)" fill="#FDB913"/>
<rect width="8" height="24" transform="matrix(1 0 0.574291 0.818651 220.97 0)" fill="#FDB913"/>
<rect width="8" height="24" transform="matrix(1 0 0.574291 0.818651 240.97 0)" fill="#FDB913"/>
<rect width="8" height="24" transform="matrix(1 0 0.574291 0.818651 260.97 0)" fill="#FDB913"/>
<rect width="8" height="24" transform="matrix(1 0 0.574291 0.818651 280.97 0)" fill="#FDB913"/>
<rect width="8" height="24" transform="matrix(1 0 0.574291 0.818651 300.97 0)" fill="#FDB913"/>
<rect width="8" height="24" transform="matrix(1 0 0.574291 0.818651 320.97 0)" fill="#FDB913"/>
</svg>
