<svg width="160" height="16" viewBox="0 0 160 16" fill="none" xmlns="http://www.w3.org/2000/svg">
<path d="M1.05529 7.02698C0.503848 6.99644 0.0320645 7.41872 0.00152957 7.97016C-0.0290054 8.5216 0.393272 8.99338 0.944712 9.02392L1.05529 7.02698ZM159.263 8.99016C159.796 8.84475 160.11 8.29495 159.965 7.76215C159.819 7.22935 159.27 6.91532 158.737 7.06073L159.263 8.99016ZM89 6.49999C92.4003 6.49999 94.6687 7.90899 97.0253 9.49268C99.355 11.0583 101.854 12.8712 105.465 12.9994L105.535 11.0006C102.589 10.896 100.561 9.45886 98.1408 7.83269C95.7479 6.22459 93.0448 4.49999 89 4.49999V6.49999ZM128 9.99999C135.029 9.99999 140.925 13.995 159.263 8.99016L158.737 7.06073C140.677 11.9898 135.894 7.99999 128 7.99999V9.99999ZM105.465 12.9994C108.884 13.1208 112.768 12.3403 116.608 11.5677C120.505 10.7838 124.388 9.99999 128 9.99999V7.99999C124.151 7.99999 120.062 8.83265 116.214 9.60695C112.309 10.3925 108.673 11.112 105.535 11.0006L105.465 12.9994ZM58.0528 11.8944C58.7726 12.2543 59.7057 12.3521 60.6685 12.3378C61.6599 12.323 62.8182 12.1851 64.0748 11.97C66.5887 11.5398 69.6176 10.779 72.7119 9.96726C75.8238 9.15089 79.0046 8.28233 81.882 7.61474C84.7772 6.94303 87.2647 6.49999 89 6.49999V4.49999C87.0128 4.49999 84.3265 4.99446 81.43 5.66649C78.5157 6.34265 75.2868 7.2241 72.2044 8.03272C69.1042 8.84599 66.1541 9.58514 63.7375 9.9987C62.529 10.2055 61.4841 10.3254 60.6387 10.338C59.7648 10.351 59.2274 10.2456 58.9472 10.1056L58.0528 11.8944ZM56.1286 2.42847C56.3979 2.5362 56.5162 2.65904 56.5812 2.76201C56.6539 2.87721 56.7137 3.05447 56.7278 3.34252C56.7585 3.97285 56.5702 4.76577 56.3368 5.80608C56.124 6.75456 55.8746 7.91332 55.9989 8.98404C56.1347 10.1542 56.7166 11.2263 58.0528 11.8944L58.9472 10.1056C58.2834 9.77367 58.0528 9.33327 57.9855 8.75345C57.9067 8.07417 58.0635 7.24543 58.2882 6.24391C58.4923 5.33422 58.7727 4.21464 58.7254 3.24498C58.7004 2.73302 58.5843 2.1884 58.2723 1.69423C57.9526 1.18783 57.4771 0.813797 56.8714 0.57152L56.1286 2.42847ZM32.4855 3.35749C32.5918 3.42124 32.5768 3.43393 32.5776 3.47797C32.5802 3.61751 32.5162 3.89651 32.2755 4.35528C31.7964 5.26811 30.915 6.36502 29.9613 7.60553C29.0667 8.76931 28.0819 10.0923 27.6536 11.2911C27.4347 11.9038 27.3097 12.6191 27.5379 13.3196C27.7791 14.0598 28.3459 14.5814 29.0939 14.9138L29.9061 13.0862C29.5291 12.9186 29.4608 12.7654 29.4395 12.7C29.4053 12.5951 29.3905 12.3741 29.537 11.9639C29.8396 11.1169 30.6069 10.0473 31.547 8.82446C32.4281 7.67829 33.464 6.39437 34.0464 5.2847C34.3363 4.73223 34.5892 4.08956 34.5772 3.44108C34.5635 2.6971 34.2027 2.05542 33.5145 1.6425L32.4855 3.35749ZM0.944712 9.02392C9.50119 9.49772 16.8421 7.59845 22.3926 5.84944C25.2085 4.96212 27.4589 4.14993 29.2786 3.65431C30.1767 3.40967 30.8988 3.26356 31.4662 3.22585C32.0461 3.18732 32.3418 3.27126 32.4855 3.35749L33.5145 1.6425C32.8638 1.25206 32.0873 1.18017 31.3336 1.23025C30.5675 1.28116 29.6947 1.46811 28.753 1.7246C26.8929 2.23123 24.4838 3.09355 21.7915 3.9419C16.3256 5.66425 9.25537 7.48104 1.05529 7.02698L0.944712 9.02392ZM29.0939 14.9138C29.9726 15.3043 31.0386 15.2044 32.0524 14.9495C33.1039 14.6851 34.2981 14.2012 35.5585 13.5949C38.0817 12.3812 41.031 10.5974 43.9003 8.82589C46.7934 7.03973 49.6016 5.26854 51.9117 4.02414C53.0676 3.40152 54.0584 2.93326 54.8447 2.66283C55.2375 2.52775 55.5495 2.4526 55.7861 2.42481C55.9025 2.41114 55.9883 2.41045 56.0481 2.41521C56.1078 2.41996 56.1305 2.42924 56.1286 2.42847L56.8714 0.57152C56.4379 0.398116 55.9719 0.389233 55.5528 0.438467C55.1243 0.488798 54.6648 0.609748 54.1943 0.771538C53.2541 1.09486 52.1511 1.62348 50.9633 2.26335C48.5859 3.54395 45.7066 5.36027 42.8497 7.1241C39.969 8.90262 37.1058 10.6313 34.6915 11.7926C33.4831 12.3738 32.4274 12.793 31.5648 13.0099C30.6645 13.2362 30.1524 13.1956 29.9061 13.0862L29.0939 14.9138Z" fill="#FDB913"/>
</svg>
