<svg width="155" height="48" viewBox="0 0 155 48" fill="none" xmlns="http://www.w3.org/2000/svg">
<path d="M51.1933 28.3712H55.4192L54.3968 24.7458C53.9197 23.0673 53.5107 21.0532 53.3062 19.7776C53.1018 20.9861 52.6928 23.0002 52.2157 24.7458L51.1933 28.3712ZM55.8963 30.3181H50.648L49.4893 34.5478C49.4212 34.8163 49.2848 34.9506 48.3306 34.9506C47.9898 34.9506 47.3764 34.9506 46.7629 34.8834L52.1475 17.1593C52.2157 16.8907 52.5565 16.8236 53.1018 16.8236C53.5107 16.8236 53.9197 16.8236 54.2605 16.8907L59.7132 34.5478C59.7814 34.8163 59.6451 35.0177 58.6227 35.0177C58.2819 35.0177 57.8048 35.0177 57.1913 34.9506L55.8963 30.3181Z" fill="#58595B"/>
<path d="M60.9401 22.6645C62.0988 22.1945 64.1436 21.7917 65.7112 21.7917C68.9147 21.7917 70.0053 22.7316 70.0053 25.2157V34.4806C70.0053 34.8834 69.9371 34.8834 67.4834 34.8834V25.8199C67.4834 24.2086 67.2107 23.6044 65.6431 23.6044C65.0296 23.6044 64.0754 23.7387 63.3938 24.0743V34.4806C63.3938 34.8834 63.3256 34.8834 60.9401 34.8834V22.6645Z" fill="#58595B"/>
<path d="M72.2545 16.8907C72.2545 15.9508 72.6635 15.9508 74.7083 15.9508V22.7316C75.6625 22.0603 76.9575 21.7246 78.1162 21.7246C80.7063 21.7246 81.2516 22.933 81.2516 25.1486V34.4806C81.2516 34.8834 81.1152 34.8834 78.7297 34.8834V25.7528C78.7297 24.6115 78.457 23.6716 77.0257 23.6716C76.3441 23.6716 75.458 23.873 74.7764 24.4101V34.4806C74.7764 34.8834 74.7764 34.8834 72.3227 34.8834V16.8907H72.2545Z" fill="#58595B"/>
<path d="M87.863 28.5725C86.6362 28.5725 85.6138 28.9082 85.6138 31.1909C85.6138 33.0707 86.4317 33.4064 87.5904 33.4064C88.272 33.4064 88.9536 33.205 89.2262 32.9364C89.2944 32.0636 89.2944 30.1838 89.2944 28.7739C88.8854 28.6397 88.272 28.5725 87.863 28.5725ZM83.3645 22.4631C83.9098 22.1945 85.6819 21.7917 87.9994 21.7917C90.5894 21.7917 91.7481 22.5973 91.7481 24.9471V26.2899C91.7481 29.2439 91.7481 32.3322 91.5437 34.2792C90.7257 34.682 89.2944 35.1519 87.3178 35.1519C85.0685 35.1519 82.9556 34.7491 82.9556 31.258C82.9556 27.6997 84.9322 27.0284 86.977 27.0284C87.6586 27.0284 88.6128 27.0955 89.2262 27.3641V25.3499C89.2262 24.1415 88.5446 23.8058 87.3178 23.8058C85.8183 23.8058 84.1824 24.0743 83.2964 24.3429C83.0237 23.9401 82.9556 23.4701 82.9556 23.1344C83.0237 22.8659 83.16 22.5973 83.3645 22.4631Z" fill="#58595B"/>
<path d="M93.9292 22.6645C95.0879 22.1945 97.1327 21.7917 98.7004 21.7917C101.904 21.7917 102.994 22.7316 102.994 25.2157V34.4806C102.994 34.8834 102.926 34.8834 100.473 34.8834V25.8199C100.473 24.2086 100.2 23.6044 98.6322 23.6044C98.0188 23.6044 97.0645 23.7387 96.3829 24.0743V34.4806C96.3829 34.8834 96.3148 34.8834 93.9292 34.8834V22.6645V22.6645Z" fill="#58595B"/>
<path d="M125.896 34.2121C124.737 34.7492 123.033 35.152 121.397 35.152C117.785 35.152 116.831 33.7421 116.831 30.8552V22.4631C116.831 21.9932 116.831 21.9932 119.353 21.9932V31.0566C119.353 32.7351 119.762 33.3393 121.397 33.3393C121.943 33.3393 122.761 33.205 123.442 32.8693V22.4631C123.442 21.9932 123.442 21.9932 125.896 21.9932V34.2121Z" fill="#58595B"/>
<path d="M130.531 27.9684C131.69 27.9684 133.598 27.9684 134.62 27.6999C134.757 27.2299 134.757 26.6257 134.757 26.1557C134.757 24.2759 134.348 23.6045 133.053 23.6045C131.826 23.6045 130.735 24.4773 130.531 27.9684ZM137.21 25.8872C137.21 27.0285 137.142 28.3041 136.87 29.244C134.757 29.5797 131.962 29.6468 130.531 29.6468C130.667 32.3994 131.485 33.0708 133.325 33.0708C134.552 33.0708 135.779 32.7351 136.801 32.2652C136.938 32.668 137.006 33.2722 137.006 33.675C137.006 34.4807 135.097 35.0849 132.848 35.0849C130.054 35.0849 128.009 34.0779 128.009 29.0426C128.009 22.5974 130.735 21.6575 133.394 21.6575C135.915 21.7247 137.21 23.1345 137.21 25.8872Z" fill="#58595B"/>
<path d="M139.051 22.933C140.209 22.2616 141.709 21.7917 143.208 21.7917C144.776 21.7917 145.321 22.1945 145.321 22.8659C145.321 23.1344 145.253 23.6715 145.049 24.0743C144.572 23.8729 144.094 23.7387 143.617 23.7387C142.936 23.7387 142.186 23.9401 141.641 24.3429V34.4806C141.641 34.8834 141.641 34.8834 139.119 34.8834V22.933H139.051Z" fill="#58595B"/>
<path d="M151.047 28.5725C149.82 28.5725 148.797 28.9082 148.797 31.1909C148.797 33.0707 149.615 33.4064 150.774 33.4064C151.456 33.4064 152.137 33.205 152.41 32.9364C152.478 32.0636 152.478 30.1838 152.478 28.7739C152.069 28.6397 151.524 28.5725 151.047 28.5725ZM146.616 22.4631C147.162 22.1945 148.934 21.7917 151.251 21.7917C153.841 21.7917 155 22.5973 155 24.9471V26.2899C155 29.2439 155 32.3322 154.795 34.2792C153.978 34.682 152.546 35.1519 150.57 35.1519C148.32 35.1519 146.207 34.7491 146.207 31.258C146.207 27.6997 148.184 27.0284 150.229 27.0284C150.91 27.0284 151.865 27.0955 152.478 27.3641V25.3499C152.478 24.1415 151.796 23.8058 150.57 23.8058C149.07 23.8058 147.434 24.0743 146.548 24.3429C146.276 23.9401 146.207 23.4701 146.207 23.1344C146.276 22.8659 146.344 22.5973 146.616 22.4631Z" fill="#58595B"/>
<path d="M110.015 33.0036C109.81 33.0036 109.606 33.0036 109.47 32.9364C108.243 32.6679 107.561 31.5265 107.357 29.4453C107.357 29.1096 107.289 28.7068 107.289 28.3711C107.289 28.1026 107.289 27.9011 107.289 27.6326C107.357 26.357 107.629 25.4171 108.106 24.8128C108.652 24.0743 109.401 23.7387 110.492 23.7387C111.037 23.7387 111.583 23.8058 112.128 23.8729V32.265C112.06 32.3322 111.992 32.3993 111.923 32.3993C111.446 32.8693 110.833 33.0036 110.015 33.0036ZM107.289 39.2473C106.811 39.2473 106.402 39.2473 106.062 39.2473C105.925 39.7172 105.993 40.1872 106.13 40.4558C106.198 40.7243 106.402 40.9928 106.675 41.06C106.811 41.1271 107.016 41.1271 107.289 41.1271C107.425 41.1271 107.152 41.1271 107.357 41.1271C109.742 41.1271 111.174 40.4558 112.605 39.3144C113.082 38.9116 113.423 38.5088 113.764 38.0388C114.445 37.0318 114.786 35.8233 114.786 34.3463V22.3959L114.65 22.3288C113.423 21.9931 112.06 21.7917 110.628 21.7917C108.652 21.7917 107.22 22.3288 106.266 23.403C105.38 24.41 104.903 26.0213 104.903 28.1026C104.903 28.1697 104.903 28.2368 104.903 28.304C104.903 29.1767 104.971 29.9824 105.107 30.7209C105.448 32.3993 106.198 33.5406 107.289 34.212C108.038 34.682 108.993 34.8834 110.083 34.8834C110.833 34.8834 111.583 34.7491 112.264 34.4806V34.5477C112.264 35.8233 111.855 36.8975 110.969 37.7031C110.901 37.7703 110.833 37.8374 110.765 37.9045C110.015 38.5759 109.401 38.9787 108.175 39.113C107.629 39.2473 107.493 39.2473 107.289 39.2473Z" fill="#58595B"/>
<path d="M10.6865 27.5713C7.68752 28.7126 6.25618 29.5183 6.25618 29.5183C5.91538 29.7197 5.50642 30.1225 5.30194 30.4582L3.05268 34.5536C2.84821 34.8892 2.98452 35.0906 3.39348 34.9564C3.39348 34.9564 4.34771 34.6878 5.23378 34.4193C7.41489 33.815 11.4363 32.808 11.4363 32.808C11.7771 32.7409 12.2542 32.4052 12.4587 32.0695L15.6622 26.3628C15.8667 26.0272 15.7303 25.8258 15.3214 25.96C15.2532 25.96 13.004 26.6985 10.6865 27.5713Z" fill="#F26522"/>
<path d="M31.1343 29.9882C31.5433 29.9882 31.6796 29.6525 31.4751 29.3168L28.4079 23.8116C28.2035 23.4759 27.7945 23.2745 27.3855 23.3417L21.3194 24.3487C20.9786 24.4159 20.7741 24.7515 20.9786 25.0872L23.7049 30.0554C23.9094 30.391 24.3184 30.6596 24.7273 30.5924L31.1343 29.9882Z" fill="#F26522"/>
<path d="M27.0448 21.2604L26.4995 20.2534L25.409 18.3064L23.9776 15.7552C23.7731 15.4195 23.3642 15.2852 23.0234 15.4195C18.8657 16.628 14.7761 18.4407 12.7995 19.7834C11.7089 20.5219 10.7547 21.2604 10.7547 21.2604C10.4821 21.529 10.0731 21.9989 9.86863 22.2675L7.27857 26.8328C7.07409 27.1685 7.21041 27.3027 7.55121 27.1685C7.55121 27.1685 8.2328 26.8328 8.98255 26.5642C11.5045 25.49 14.299 24.5501 17.2298 23.8116C17.298 23.8116 17.3662 23.8116 17.3662 23.7445C20.6378 22.9388 26.6358 21.9318 26.6358 21.9318C27.0448 21.8646 27.1811 21.5961 27.0448 21.2604Z" fill="#F47920"/>
<path d="M12.595 18.0378C12.595 18.0378 15.4577 16.3594 17.4343 15.5538C19.1383 14.8153 22.2055 13.9425 22.2055 13.9425C22.5463 13.8082 22.7508 13.4725 22.5463 13.1368L19.6836 8.03444C19.0702 7.09452 18.1841 7.16166 17.6388 8.16871L12.3224 17.8364C12.1179 18.105 12.2542 18.2392 12.595 18.0378Z" fill="#F7941D"/>
<path d="M36.2463 37.9104L32.9746 32.0023C32.7701 31.6666 32.4293 31.3981 32.1567 31.3981H31.8841C19.7517 32.2037 10.891 34.2178 5.6427 35.762C4.07504 36.2319 2.23473 36.8362 2.23473 36.8362C1.89393 36.9704 1.6213 37.0376 1.21234 37.6418C1.21234 37.6418 1.21234 37.7089 1.14418 37.8432C0.735224 38.9174 1.21234 39.6559 2.37105 39.6559H2.43921H35.0194C36.1781 39.723 36.7234 38.9174 36.2463 37.9104Z" fill="#F04E23"/>
</svg>
