<svg width="158" height="48" viewBox="0 0 158 48" fill="none" xmlns="http://www.w3.org/2000/svg">
<path d="M124.873 28.7504C124.873 28.7504 124.087 27.9701 123.076 27.9701C122.066 27.9701 121.28 28.3045 121.28 29.6422V37.9467H118.642V29.6422C118.642 26.9669 120.27 25.4063 122.852 25.4063C123.694 25.4063 124.873 25.685 125.378 26.1309C125.771 26.4653 125.715 27.0226 125.49 27.6357C125.322 28.0259 125.041 28.5275 124.873 28.7504Z" fill="#58595B"/>
<path d="M65.7633 20.4459C64.8651 20.4459 64.1354 21.1704 64.1354 22.0622C64.1354 22.954 64.8651 23.6785 65.7633 23.6785C66.6614 23.6785 67.3912 22.954 67.3912 22.0622C67.3912 21.1704 66.6614 20.4459 65.7633 20.4459Z" fill="#58595B"/>
<path d="M64.5283 25.6292V36.2746C64.5283 37.9467 65.8755 38.2811 67.1666 38.0582V27.4128C67.1666 25.7407 65.8194 25.4063 64.5283 25.6292Z" fill="#58595B"/>
<path d="M110.334 35.996C108.089 35.996 107.303 34.1567 107.303 31.8716C107.303 29.5864 108.089 27.7472 110.334 27.7472C112.579 27.7472 113.365 29.5864 113.365 31.8716C113.365 34.1567 112.579 35.996 110.334 35.996ZM110.334 25.462C106.517 25.462 104.552 28.3603 104.552 31.9273C104.552 35.4943 106.573 38.3926 110.334 38.3926C114.151 38.3926 116.116 35.4943 116.116 31.9273C116.116 28.3045 114.151 25.462 110.334 25.462Z" fill="#58595B"/>
<path d="M56.2205 35.996C54.6487 35.996 53.6944 34.8813 53.6383 34.7698V29.1963C53.6383 28.8062 53.8628 28.4717 54.3119 28.1931C54.8171 27.8587 55.4346 27.7472 56.1644 27.7472C56.7257 27.7472 59.0833 27.7472 59.0833 31.8158C59.1395 33.2092 58.9149 35.996 56.2205 35.996ZM56.838 25.4621C54.7049 25.4621 53.7506 26.3538 53.4699 26.6325C52.9086 25.2949 51 25.685 51 25.685V43.353H53.6383V37.3894C53.8067 37.5566 54.4242 38.3368 56.5573 38.3368C57.1748 38.3368 61.89 38.3368 61.89 31.7044C61.89 25.0719 56.838 25.4621 56.838 25.4621Z" fill="#58595B"/>
<path d="M99.5 34.8255C99.3878 34.937 98.4896 36.0517 96.9179 36.0517C94.2234 36.0517 93.9989 33.265 93.9989 31.8716C93.9989 27.8029 96.3565 27.8029 96.9179 27.8029C97.6476 27.8029 98.3212 27.9701 98.7703 28.2488C99.2194 28.5275 99.4439 28.8619 99.4439 29.252V34.8255H99.5ZM99.6684 26.6325C99.3878 26.3538 98.4335 25.4621 96.3004 25.4621C96.3004 25.4621 91.2483 25.0719 91.2483 31.7044C91.2483 38.3369 95.9636 38.3369 96.581 38.3369C98.7141 38.3369 99.3316 37.5566 99.5 37.3894C99.5 39.1171 99.2194 39.6745 98.9948 40.0646C98.7703 40.4548 98.4335 40.7335 97.9844 40.9007C97.5353 41.1236 96.9179 41.2351 96.1881 41.2351C93.8866 41.2351 92.6516 39.7302 92.6516 39.7302C92.6516 39.7302 91.5851 40.7892 91.5851 41.5137C91.5851 42.6284 93.4375 43.5759 96.1881 43.5759C99.3316 43.5759 100.454 42.3498 100.96 41.7924C101.409 41.2351 102.194 40.0646 102.194 36.9435V25.685C102.138 25.685 100.23 25.2949 99.6684 26.6325Z" fill="#58595B"/>
<path d="M74.0712 38.3368C76.092 38.3368 77.4392 37.3893 77.4392 36.5533C77.4392 35.8288 76.7656 35.1042 76.4288 34.7698C76.4288 34.7698 75.5868 35.996 74.3518 35.996C73.7344 35.996 72.9485 35.8288 72.9485 34.2124V28.0259H75.25C76.7095 28.0259 77.0463 26.8554 76.8218 25.7407H72.9485V23.9572C72.9485 22.2851 71.6013 21.9507 70.3102 22.1737V34.101C70.3663 35.3829 70.3663 38.3368 74.0712 38.3368Z" fill="#58595B"/>
<path d="M86.3085 34.3239C86.2524 35.7173 81.4248 37.1664 81.4248 34.3239C81.4248 31.7044 86.3085 32.0388 86.3085 32.0388V34.3239V34.3239ZM88.6661 28.0816C88.4977 27.4685 87.9925 25.4063 84.1754 25.4063C81.7055 25.4063 80.3021 26.2423 80.0215 26.4653C79.6846 26.6882 79.5162 26.9669 79.5162 27.3013C79.5162 27.4685 79.5162 27.6915 79.6846 27.9701C79.9653 28.5275 80.3583 28.8062 80.3583 28.8062C80.3583 28.8062 82.0984 27.7472 83.9509 27.7472C84.9051 27.7472 85.5226 27.9144 85.8594 28.2488C86.3646 28.8062 86.3085 29.9209 86.3085 29.9209C86.1962 29.9209 86.1401 29.9209 86.0278 29.9209C86.0278 29.9209 78.7865 29.5307 78.7865 34.4354C78.7865 35.1599 78.8988 35.773 79.1794 36.2746C79.404 36.7763 80.1899 38.1696 82.8282 38.1696C85.2419 38.1696 86.1401 37.2221 86.4769 36.8877C86.7576 37.7795 87.4312 38.3368 88.8907 38.0024V30.0881C88.8907 29.3078 88.8345 28.6947 88.6661 28.0816Z" fill="#58595B"/>
<path d="M134.135 34.3239C134.079 35.7173 129.251 37.1664 129.251 34.3239C129.251 31.7044 134.135 32.0388 134.135 32.0388V34.3239ZM136.492 28.0816C136.324 27.4685 135.819 25.4063 132.002 25.4063C129.532 25.4063 128.128 26.2423 127.848 26.4653C127.511 26.6882 127.343 26.9669 127.343 27.3013C127.343 27.4685 127.343 27.6915 127.511 27.9701C127.792 28.5275 128.185 28.8062 128.185 28.8062C128.185 28.8062 129.925 27.7472 131.777 27.7472C132.731 27.7472 133.349 27.9144 133.686 28.2488C134.191 28.8062 134.135 29.9209 134.135 29.9209C134.023 29.9209 133.966 29.9209 133.854 29.9209C133.854 29.9209 126.613 29.5307 126.613 34.4354C126.613 35.1599 126.725 35.773 127.006 36.2746C127.23 36.7763 128.016 38.1696 130.654 38.1696C133.068 38.1696 133.966 37.2221 134.303 36.8877C134.584 37.7795 135.257 38.3368 136.717 38.0024V30.0881C136.717 29.3078 136.661 28.6947 136.492 28.0816Z" fill="#58595B"/>
<path d="M148 34.3796C148 35.0485 147.888 35.6058 147.607 36.1074C146.26 38.3368 143.79 38.3368 143.172 38.3368C140.646 38.3368 139.524 37.5008 139.355 37.2779C139.131 37.0549 139.019 36.832 139.019 36.5533C139.019 35.8845 139.861 34.714 139.861 34.714C139.861 34.714 141.264 36.1074 143.285 36.1074C145.418 36.1074 145.474 34.8813 145.474 34.5468C145.474 34.2682 145.418 33.9895 145.306 33.8223C145.025 33.3207 144.52 33.1535 144.014 32.9863C143.509 32.8191 141.376 32.5404 140.422 31.7044C140.085 31.4257 139.748 31.0355 139.524 30.6454C139.299 30.1995 139.187 29.6979 139.187 29.0848C139.187 27.4685 140.197 26.6882 140.59 26.3538C141.039 26.0751 142.05 25.462 143.678 25.462C145.362 25.462 146.484 25.9636 146.821 26.1866C147.214 26.4095 147.775 26.7439 147.775 27.357C147.775 28.3045 146.877 28.9733 146.877 28.9733C146.877 28.9733 145.586 27.6914 143.678 27.6914C143.453 27.6914 141.713 27.6914 141.713 28.9176C141.713 29.1405 141.769 29.3078 141.881 29.475C141.994 29.6422 142.162 29.7536 142.33 29.8651C142.555 29.9766 142.78 30.088 143.06 30.1995C143.341 30.311 143.678 30.3667 144.014 30.4782C144.52 30.5897 145.025 30.7569 145.53 30.9241C148 31.8158 148 33.7108 148 34.3796Z" fill="#58595B"/>
<path d="M82.379 23.9015C82.379 23.9015 84.456 21.2262 84.6244 20.9475C84.7367 20.836 85.298 20 86.14 20C87.0382 20 87.9363 20.836 87.9363 20.836L85.2419 23.7342C85.0173 23.9572 84.5683 24.5145 83.7824 24.5145C83.0526 24.5145 82.379 23.9015 82.379 23.9015Z" fill="#58595B"/>
<path d="M28.5 14.7222L38.2222 24.5H18.7222L28.5 14.7222L18.7222 5L9 14.7222L18.7222 24.5V44H38.2222V24.5L48 14.7222L38.2222 5L28.5 14.7222Z" fill="url(#paint0_linear_447_6)"/>
<defs>
<linearGradient id="paint0_linear_447_6" x1="9.00167" y1="24.4883" x2="47.9783" y2="24.4883" gradientUnits="userSpaceOnUse">
<stop stop-color="#FDB913"/>
<stop offset="1" stop-color="#F15A22"/>
</linearGradient>
</defs>
</svg>
