<svg width="120" height="48" viewBox="0 0 120 48" fill="none" xmlns="http://www.w3.org/2000/svg">
<path d="M63.9756 26.1311V31.6463C63.9756 33.5637 63.0797 34.8995 61.3535 34.8995C59.6272 34.8995 58.7314 33.5853 58.7314 31.6463V26.1311C58.7314 24.4075 57.3329 24.0844 56 24.2998C56 25.7648 56 31.6463 56 31.6463C56 34.8564 57.4859 37.2908 61.3535 37.2908C65.2211 37.2908 66.7069 34.8564 66.7069 31.6463C66.7069 31.6463 66.7069 25.7648 66.7069 24.2998C65.374 24.0844 63.9756 24.4075 63.9756 26.1311ZM75.3818 23.9982C71.5141 23.9982 70.0283 26.4327 70.0283 29.6427C70.0283 29.6427 70.0283 35.5242 70.0283 36.9892C71.3393 37.2047 72.7596 36.8815 72.7596 35.158V29.6427C72.7596 27.7253 73.6555 26.3896 75.3818 26.3896C77.108 26.3896 78.0039 27.7038 78.0039 29.6427V35.158C78.0039 36.8815 79.4023 37.2047 80.7352 36.9892C80.7352 35.5242 80.7352 29.6427 80.7352 29.6427C80.7352 26.4542 79.2275 23.9982 75.3818 23.9982ZM99.0026 33.3914C98.7185 33.8007 97.5604 35.0287 95.8123 34.9425C93.7584 34.8348 92.4692 33.4776 92.4692 30.6553C92.4692 27.9192 93.8239 26.5189 95.8123 26.5189C97.5167 26.5189 98.6093 27.4452 99.0681 27.9192C99.4396 27.7469 100.117 27.0575 100.117 26.368C100.117 25.0539 97.8226 24.1059 95.8997 24.1059C92.2943 24.1059 89.6722 26.5835 89.6722 30.6553C89.6722 35.3519 92.2725 37.2908 95.8997 37.2908C98.347 37.2908 100.139 36.0413 100.139 35.2226C100.139 34.4901 99.3522 33.7145 99.0026 33.3914ZM85.3239 19C84.4062 19 83.6632 19.754 83.6632 20.6804C83.6632 21.6068 84.4062 22.3609 85.3239 22.3609C86.2416 22.3609 86.9846 21.6068 86.9846 20.6804C86.9846 19.754 86.2416 19 85.3239 19ZM84.0566 24.2783C84.0566 25.1831 84.0566 35.1795 84.0566 35.1795C84.0566 36.9031 85.455 37.2262 86.7879 37.0108C86.7879 36.1059 86.7879 26.1095 86.7879 26.1095C86.7879 24.4075 85.3895 24.0628 84.0566 24.2783Z" fill="white"/>
<path fill-rule="evenodd" clip-rule="evenodd" d="M14 27.9102C14 31.8312 15.9666 42 24.8817 42C28.4427 42 30.5813 40.5083 31.8657 38.5201C31.7561 38.5219 31.6459 38.5228 31.5352 38.5228C30.3665 38.5228 29.2846 38.3325 28.3087 37.9611C27.4291 38.6594 26.2896 38.9838 24.8599 38.9838C17.2558 38.9838 17.0373 28.018 17.0373 27.9102V19.7235C17.0373 16.4919 18.8072 15.0269 20.446 15.0269C23.7455 15.0269 23.8329 19.2496 23.8329 19.7235V19.7275V21.0162H26.8591V19.7275H26.9139V19.7235C26.9139 19.3788 26.8702 17.526 26.0835 15.7379C25.0129 13.325 23.0244 12.0108 20.4679 12.0108C17.2558 12.0108 14 14.6607 14 19.7235V27.9102ZM30.2814 34.3555C30.0133 35.5282 29.6165 36.4591 29.078 37.1695C29.8277 37.4026 30.6486 37.5228 31.5352 37.5228C31.8395 37.5228 32.139 37.5157 32.4335 37.5017C32.9116 36.5041 33.2221 35.4332 33.4237 34.3921C32.8283 34.4684 32.1988 34.5066 31.5352 34.5066C31.0742 34.5066 30.6577 34.4534 30.2814 34.3555ZM33.5919 33.3588C32.9599 33.4565 32.2752 33.5066 31.5352 33.5066C31.1261 33.5066 30.7736 33.4565 30.4679 33.37C30.6358 32.2802 30.7159 31.0174 30.7159 29.5691V14.7253C30.7378 9.25314 33.2943 6 37.599 6C39.1722 6 44.2635 6.62478 44.2635 14.5961V14.6H44.2087V16.2765H41.2044V14.6V14.5961C41.2044 12.0539 40.5707 9.01616 37.599 9.01616C34.4524 9.01616 33.7969 12.1185 33.7969 14.7253V29.5691C33.7969 30.4451 33.7969 31.8281 33.5919 33.3588Z" fill="white"/>
<path d="M31.59 37.5189C26.7391 37.5189 23.8547 33.921 23.8547 27.9102V19.7235H26.9139V27.9102C26.9139 30.3663 27.5257 34.5027 31.59 34.5027C37.9704 34.5027 41.2044 30.9695 41.2044 23.9677V14.5961H44.2635V23.9677C44.2635 32.5853 39.6311 37.5189 31.59 37.5189Z" fill="white"/>
</svg>
