<svg width="133" height="48" viewBox="0 0 133 48" fill="none" xmlns="http://www.w3.org/2000/svg">
<path d="M74.5094 35.345V30.1162C74.5094 28.2861 73.6603 27.0443 72.0927 27.0443C70.4598 27.0443 69.676 28.2861 69.676 30.1162V35.345C69.676 36.9789 68.3697 37.3057 67.1287 37.0443V30.1816C67.1287 27.175 68.5003 24.8221 72.0927 24.8221C75.6851 24.8221 77.0568 27.1097 77.0568 30.1816V37.1097C75.8157 37.3057 74.5094 36.9789 74.5094 35.345Z" fill="#58595B"/>
<path d="M81.4328 20.1162C80.5837 20.1162 79.8652 20.8352 79.8652 21.6848C79.8652 22.5345 80.5837 23.2535 81.4328 23.2535C82.2819 23.2535 83.0004 22.5345 83.0004 21.6848C83.0004 20.8352 82.2819 20.1162 81.4328 20.1162Z" fill="#58595B"/>
<path d="M80.2571 25.0836V35.345C80.2571 36.979 81.5634 37.3058 82.8044 37.0443V26.8483C82.8044 25.2143 81.4981 24.8875 80.2571 25.0836Z" fill="#58595B"/>
<path d="M56.5473 26.8483V32.077C56.5473 33.9071 57.3965 35.1489 58.9641 35.1489C60.597 35.1489 61.3808 33.9071 61.3808 32.077V26.8483C61.3808 25.2143 62.6871 24.8875 63.9281 25.1489V32.077C63.9281 35.0836 62.5565 37.4365 58.9641 37.4365C55.3716 37.4365 54 35.1489 54 32.077V25.0836C55.241 24.8875 56.5473 25.2143 56.5473 26.8483Z" fill="#58595B"/>
<path d="M93.1245 33.7763C93.1245 34.1685 92.9285 34.4299 92.4713 34.7567C92.0141 35.0835 91.4263 35.2142 90.7078 35.2142C90.1852 35.2142 87.8992 35.2142 87.8992 31.2927C87.8992 29.9201 88.0951 27.2404 90.6425 27.2404C92.1447 27.2404 93.0592 28.2861 93.1245 28.4168V33.7763ZM93.1245 20.0508V25.8025C92.9285 25.6717 92.3407 24.8874 90.3159 24.8874C89.728 24.8874 85.2212 24.8874 85.2212 31.2927C85.2212 37.6979 90.1199 37.3057 90.1199 37.3057C92.1447 37.3057 93.0592 36.4561 93.3204 36.1946C93.843 37.4365 95.6718 37.1097 95.6718 37.1097V21.8155C95.6718 20.1816 94.3655 19.8548 93.1245 20.0508Z" fill="#58595B"/>
<path d="M100.505 29.6587C100.571 28.8744 101.093 27.0443 103.183 27.0443C105.6 27.0443 105.6 29.3319 105.6 29.6587H100.505ZM100.505 31.6848H108.082C108.082 31.6848 109.323 24.8875 103.314 24.8875C97.566 24.8875 97.8926 31.0966 97.8926 31.0966C97.8926 35.541 100.375 37.3711 103.836 37.3711C106.188 37.3711 107.886 36.1946 107.886 35.4103C107.886 34.6914 107.102 33.9724 106.776 33.6456C106.514 34.0378 105.404 35.0835 103.706 35.0835C100.962 35.0835 100.505 32.5999 100.505 31.6848Z" fill="#58595B"/>
<path d="M116.312 28.2208C116.312 28.2208 115.593 27.5018 114.548 27.5018C113.568 27.5018 112.785 27.8286 112.785 29.1358V37.175H110.237V29.1358C110.237 26.5868 111.805 25.0835 114.287 25.0835C115.071 25.0835 116.246 25.3449 116.704 25.8024C117.096 26.1292 117.03 26.7175 116.769 27.2404C116.769 27.5672 116.508 28.0247 116.312 28.2208Z" fill="#58595B"/>
<path d="M123.889 35.0836C122.386 35.0836 121.472 34.0378 121.407 33.9071V28.4823C121.407 28.0901 121.603 27.8287 122.06 27.5019C122.517 27.1751 123.105 27.0443 123.823 27.0443C124.346 27.0443 126.632 27.0443 126.632 30.9659C126.632 32.4038 126.436 35.0836 123.889 35.0836ZM124.476 24.8875C122.452 24.8875 121.537 25.7372 121.276 25.9986C120.753 24.7568 118.925 25.0836 118.925 25.0836V42.1424H121.472V36.3907C121.668 36.5215 122.256 37.3058 124.281 37.3058C124.868 37.3058 129.375 37.3058 129.375 30.9006C129.31 24.4953 124.476 24.8875 124.476 24.8875Z" fill="#58595B"/>
<path d="M5 20.742V23.6827C5.05651 23.7958 5.11303 23.8523 5.16954 23.9654L7.31708 26.9061C7.88223 27.6413 8.1648 28.5461 8.1648 29.4509V33.862C8.1648 34.6537 8.61691 35.1626 9.18205 35.7847C9.86022 36.5764 10.5384 37.255 11.4991 37.9902V29.3944C11.4991 27.6978 10.934 26.0013 9.91674 24.6441L5.50863 18.8758C5.28257 19.6675 5.11303 20.2331 5 20.742ZM35.6307 24.8137C34.6135 26.171 34.0483 27.8675 34.0483 29.564V38.3295C34.7265 37.8771 35.8003 36.9157 36.3654 36.2371C36.9305 35.6716 37.3827 35.0495 37.3827 34.3144V29.6206C37.3827 28.7158 37.6652 27.8109 38.2304 27.0758L40.4909 23.7958C40.8865 23.2303 41.1126 22.382 40.943 21.7034C40.7735 20.8551 40.5474 19.611 40.1518 18.5931L35.6307 24.8137ZM7.14754 16.1048C6.75194 16.84 6.92148 17.8013 7.43011 18.4234L11.7252 24.022C12.8555 25.4923 13.4206 27.302 13.4206 29.1116V38.3861C13.4206 39.0081 13.7597 39.5736 14.2683 39.8564C14.2118 39.8564 15.9072 40.7047 16.755 40.9309V29.1116C16.755 26.5103 15.9072 23.9089 14.3248 21.8165L8.44737 14.1255C8.1648 14.4648 7.48663 15.4827 7.14754 16.1048ZM31.2791 21.8165C29.6967 23.9089 28.849 26.5103 28.849 29.1116V41.044C30.0358 40.6481 31.3356 40.0261 31.3356 40.0261C31.8443 39.7433 32.1833 39.1778 32.1833 38.5557V29.1116C32.1833 27.302 32.805 25.4923 33.8788 24.022L38.3999 18.1406C38.9085 17.462 39.0216 16.6138 38.5695 15.8786C38.2304 15.2565 37.7783 14.6345 37.2696 13.9558L31.2791 21.8165ZM27.2666 18.6496C25.0626 21.5903 23.8192 25.2096 23.8192 28.8854V41.6095H26.4189C26.871 41.4398 27.1536 41.044 27.1536 40.535V28.8854C27.1536 26.0013 28.1143 23.1172 29.8663 20.7986L35.4612 13.5034C35.8568 12.9945 35.8568 12.2027 35.3481 11.7503C34.8395 11.2414 34.2179 10.789 33.5962 10.3365L27.2666 18.6496ZM10.4819 11.8069C9.97325 12.2593 9.97325 13.051 10.4254 13.56L16.0768 20.7986C17.8287 23.1172 18.7895 26.0013 18.7895 28.8854V40.535C18.7895 41.044 19.072 41.4398 19.5242 41.6095H22.1238V28.8854C22.1238 25.2096 20.8805 21.5903 18.6764 18.6496L12.2903 10.3931C11.6687 10.8455 10.9905 11.2979 10.4819 11.8069Z" fill="url(#paint0_linear_447_3)"/>
<path d="M13.8163 9.37516L22.9151 21.5903L32.0704 9.37516C29.1316 7.79172 26.2494 7 22.9716 7C19.6372 7 16.642 7.84827 13.8163 9.37516Z" fill="url(#paint1_linear_447_3)"/>
<defs>
<linearGradient id="paint0_linear_447_3" x1="5" y1="26.0038" x2="40.9976" y2="26.0038" gradientUnits="userSpaceOnUse">
<stop stop-color="#0054A6"/>
<stop offset="0.0562371" stop-color="#0059A9"/>
<stop offset="0.5129" stop-color="#007CC4"/>
<stop offset="0.8386" stop-color="#0092D7"/>
<stop offset="1" stop-color="#009BDF"/>
</linearGradient>
<linearGradient id="paint1_linear_447_3" x1="13.8406" y1="14.2951" x2="32.0461" y2="14.2951" gradientUnits="userSpaceOnUse">
<stop stop-color="#72BF44"/>
<stop offset="1" stop-color="#A6CE39"/>
</linearGradient>
</defs>
</svg>
