<svg width="120" height="48" viewBox="0 0 120 48" fill="none" xmlns="http://www.w3.org/2000/svg">
<path d="M68.394 38.9861V33.8776C68.394 32.1017 67.5645 30.8645 65.9661 30.8645C64.3678 30.8645 63.5383 32.0817 63.5383 33.8776V38.9861C63.5383 40.5825 62.2434 40.8818 61.0093 40.6822V33.8577C61.0093 30.8844 62.3851 28.6295 65.9661 28.6295C69.5472 28.6295 70.923 30.8844 70.923 33.8577V40.6822C69.6888 40.8818 68.394 40.5825 68.394 38.9861Z" fill="white"/>
<path d="M75.2526 24C74.4029 24 73.715 24.6984 73.715 25.5565C73.715 26.4145 74.4029 27.113 75.2526 27.113C76.1024 27.113 76.7902 26.4145 76.7902 25.5565C76.7902 24.6984 76.1024 24 75.2526 24Z" fill="white"/>
<path d="M74.0792 28.8889C74.0792 29.727 74.0792 38.9661 74.0792 38.9661C74.0792 40.5625 75.374 40.8618 76.6082 40.6623C76.6082 39.8242 76.6082 30.5651 76.6082 30.5651C76.6082 28.9887 75.2931 28.6894 74.0792 28.8889Z" fill="white"/>
<path d="M86.9873 40.6024V33.8776C86.9873 32.1017 86.1577 30.8645 84.5594 30.8645C82.9611 30.8645 82.1316 32.0817 82.1316 33.8776V38.9861C82.1316 40.5825 80.8367 40.8818 79.6025 40.6822V33.8577C79.6025 30.8844 80.9783 28.6295 84.5594 28.6295C86.2184 28.6295 87.3919 29.1284 88.2012 29.9266C88.9902 29.1683 90.2244 28.6295 91.9643 28.6295C95.5454 28.6295 96.9212 30.8844 96.9212 33.8577V40.6822C95.7073 40.8818 94.3922 40.5825 94.3922 38.9861V33.8776C94.3922 32.1017 93.5627 30.8645 91.9643 30.8645C90.366 30.8645 89.5163 32.0817 89.5163 33.8776V40.6024H86.9873Z" fill="white"/>
<path d="M101.736 35.4142H109.283C109.283 35.4142 110.497 28.7293 104.528 28.7293C98.8432 28.7293 99.1265 34.7956 99.1265 34.7956C99.1265 39.1457 101.615 40.9417 105.054 40.9417C107.381 40.9417 109.101 39.7843 109.101 39.026C109.101 38.3276 108.352 37.6292 108.029 37.3099C107.745 37.689 106.673 38.7466 104.994 38.7466C102.222 38.7666 101.736 36.3321 101.736 35.4142ZM101.736 33.4187C101.817 32.6604 102.343 30.8645 104.427 30.8645C106.855 30.8645 106.835 33.0994 106.855 33.4187H101.736Z" fill="white"/>
<path d="M50.5088 30.6051V35.7135C50.5088 37.4895 51.3383 38.7267 52.9569 38.7267C54.5552 38.7267 55.3847 37.5094 55.3847 35.7135V30.6051C55.3847 29.0087 56.6796 28.7094 57.9137 28.9089V35.7135C57.9137 38.6868 56.5177 40.9417 52.9569 40.9417C49.3758 40.9417 48 38.6868 48 35.7135V28.9089C49.2139 28.7094 50.5088 29.0087 50.5088 30.6051Z" fill="white"/>
<path fill-rule="evenodd" clip-rule="evenodd" d="M14.6851 41.8509C14.4786 41.7492 14.6334 44.0874 14.9948 44.7482C15.3045 45.3073 19.2273 46.3748 23.6664 45.8665C29.4991 45.2057 32.596 41.3934 33.3187 39.8685C33.6284 39.1569 33.3187 38.5469 33.3187 38.5469C26.6601 46.1206 17.3175 43.2741 14.6851 41.8509Z" fill="white"/>
<path d="M22.4216 11.9132C23.1183 14.7169 24.5992 16.835 26.0407 18.8757C27.2279 20.5531 28.4151 22.2813 29.1893 24.4162C29.2259 24.5242 29.2625 24.6195 29.2968 24.7088C29.3592 24.8716 29.4141 25.0145 29.4474 25.1786C30.4798 28.5842 30.1701 31.3799 28.5699 33.4131C26.7634 35.6496 23.8728 36.4121 21.7049 36.3613C18.7112 36.2596 16.5433 34.5314 15.8722 32.9556C15.423 31.9234 15.5047 31.0338 16.0707 30.3328C17.0111 31.5232 19.3488 31.3916 20.0016 29.6008C20.8207 27.2672 19.6667 25.5705 18.1841 23.3907C17.0509 21.7246 15.7258 19.7763 14.9431 17.0458C13.0849 10.7428 17.4724 3.27076 25.9891 2H26.1439C22.9437 4.54151 22.0662 7.69299 22.0662 9.77703C22.0662 10.5329 22.1847 11.2109 22.4216 11.9132Z" fill="white"/>
<path d="M23.229 11.7049C23.8905 14.3884 25.2579 16.3663 26.7056 18.4601L26.7117 18.469C26.8017 18.5999 26.8922 18.7311 26.983 18.8627C28.0914 20.4694 29.248 22.1457 29.9636 24.2128C29.9903 24.2916 30.0169 24.367 30.0427 24.4399C30.1167 24.6491 30.1834 24.8376 30.2217 25.0261C31.5637 29.6008 30.4281 32.3965 29.1893 33.9722C27.2795 36.3104 24.2341 37.1745 21.9114 37.1745H21.6533C18.2982 37.0729 15.9239 35.0905 15.1496 33.2606C14.5818 31.939 14.7367 30.6683 15.5625 29.7025C16.4577 28.863 17.6696 29.3754 18.0937 29.5793C19.422 27.7192 16.9748 25.7416 14.427 26.0427C11.33 26.5002 9.26531 30.5157 10.246 34.3788C11.5364 39.5127 17.6788 42.715 22.9437 42.3592C32.1831 41.7492 34.5059 34.2264 34.7639 32.3965C35.6886 25.1122 32.3292 20.9179 29.3131 17.1523C26.6046 13.7707 24.173 10.7348 25.3697 6.11724C23.4116 8.08299 22.9378 9.86258 23.229 11.7049Z" fill="white"/>
</svg>
