<svg width="120" height="48" viewBox="0 0 120 48" fill="none" xmlns="http://www.w3.org/2000/svg">
<path d="M68.394 38.9861V33.8776C68.394 32.1017 67.5645 30.8645 65.9661 30.8645C64.3678 30.8645 63.5383 32.0817 63.5383 33.8776V38.9861C63.5383 40.5825 62.2434 40.8818 61.0093 40.6822V33.8577C61.0093 30.8844 62.3851 28.6295 65.9661 28.6295C69.5472 28.6295 70.923 30.8844 70.923 33.8577V40.6822C69.6888 40.8818 68.394 40.5825 68.394 38.9861Z" fill="#58595B"/>
<path d="M75.2526 24C74.4029 24 73.715 24.6984 73.715 25.5565C73.715 26.4145 74.4029 27.113 75.2526 27.113C76.1024 27.113 76.7902 26.4145 76.7902 25.5565C76.7902 24.6984 76.1024 24 75.2526 24Z" fill="#58595B"/>
<path d="M74.0791 28.8889C74.0791 29.727 74.0791 38.9661 74.0791 38.9661C74.0791 40.5625 75.374 40.8618 76.6081 40.6623C76.6081 39.8242 76.6081 30.5651 76.6081 30.5651C76.6081 28.9887 75.293 28.6894 74.0791 28.8889Z" fill="#58595B"/>
<path d="M86.9873 40.6024V33.8776C86.9873 32.1017 86.1577 30.8645 84.5594 30.8645C82.9611 30.8645 82.1316 32.0817 82.1316 33.8776V38.9861C82.1316 40.5825 80.8367 40.8818 79.6025 40.6822V33.8577C79.6025 30.8844 80.9783 28.6295 84.5594 28.6295C86.2184 28.6295 87.3919 29.1284 88.2012 29.9266C88.9902 29.1683 90.2244 28.6295 91.9643 28.6295C95.5454 28.6295 96.9212 30.8844 96.9212 33.8577V40.6822C95.7073 40.8818 94.3922 40.5825 94.3922 38.9861V33.8776C94.3922 32.1017 93.5627 30.8645 91.9643 30.8645C90.366 30.8645 89.5163 32.0817 89.5163 33.8776V40.6024H86.9873Z" fill="#58595B"/>
<path d="M101.736 35.4142H109.283C109.283 35.4142 110.497 28.7293 104.528 28.7293C98.8432 28.7293 99.1265 34.7956 99.1265 34.7956C99.1265 39.1457 101.615 40.9417 105.054 40.9417C107.381 40.9417 109.101 39.7843 109.101 39.026C109.101 38.3276 108.352 37.6292 108.029 37.3099C107.745 37.689 106.673 38.7466 104.994 38.7466C102.222 38.7666 101.736 36.3321 101.736 35.4142ZM101.736 33.4187C101.817 32.6604 102.343 30.8645 104.427 30.8645C106.855 30.8645 106.835 33.0994 106.855 33.4187H101.736Z" fill="#58595B"/>
<path d="M50.5088 30.6051V35.7135C50.5088 37.4895 51.3383 38.7267 52.9569 38.7267C54.5552 38.7267 55.3847 37.5094 55.3847 35.7135V30.6051C55.3847 29.0087 56.6796 28.7094 57.9137 28.9089V35.7135C57.9137 38.6868 56.5177 40.9417 52.9569 40.9417C49.3758 40.9417 48 38.6868 48 35.7135V28.9089C49.2139 28.7094 50.5088 29.0087 50.5088 30.6051Z" fill="#58595B"/>
<path fill-rule="evenodd" clip-rule="evenodd" d="M18.0445 29.6973C17.2959 29.2184 15.819 29.0189 15.2525 30.9545C15.0097 31.7726 15.212 35.165 20.5533 35.3047C26.8252 35.4643 29.9612 30.4756 27.8368 22.9925C25.672 15.4097 20.0475 11.4187 25.3888 6.13068C22.88 15.8886 36.5366 18.6024 34.7562 32.4312C34.5134 34.247 32.1867 41.79 22.9204 42.4086C17.6803 42.7478 11.5096 39.555 10.2349 34.4466C9.28402 30.5953 11.3275 26.5644 14.423 26.1254C17.0127 25.7662 19.481 27.8016 18.0445 29.6973Z" fill="url(#paint0_linear_447_2)"/>
<path opacity="0.5" fill-rule="evenodd" clip-rule="evenodd" d="M29.7589 25.0878C31.3573 34.267 25.5304 36.9609 21.6863 36.5418C17.2555 36.0629 13.6744 32.2715 15.7785 29.9368C16.4664 29.1386 17.478 29.3381 18.0445 29.6973C16.7902 28.0211 13.4721 29.2384 13.6542 32.5708C13.7958 35.3246 16.1225 39.5949 21.8684 40.0739C32.814 40.9718 31.5798 28.4003 29.7589 25.0878Z" fill="url(#paint1_linear_447_2)"/>
<path d="M14.7265 41.8698C14.5039 41.75 14.6658 44.1047 15.0299 44.7632C15.3334 45.322 19.2382 46.3796 23.6893 45.8607C29.5161 45.1823 32.5914 41.4108 33.3197 39.8743C33.6435 39.1958 33.3197 38.5772 33.3197 38.5772C26.6432 46.1601 17.3364 43.2866 14.7265 41.8698Z" fill="url(#paint2_linear_447_2)"/>
<path fill-rule="evenodd" clip-rule="evenodd" d="M21.2209 36.7813C17.8826 36.0829 15.2727 33.7881 15.1715 31.7128C15.1513 31.1341 15.2929 30.5354 15.6975 30.0166C15.7178 29.9767 15.8392 29.857 15.8392 29.857C15.8392 29.857 15.8392 29.8769 15.8594 29.8969C16.5271 31.5332 19.3191 31.5731 20.007 29.5776C21.4435 25.4869 16.7698 23.3317 14.9287 17.026C13.1078 10.7402 17.5184 3.2372 26.0159 2.01995H26.0361C26.0766 2.01995 26.0968 2.01995 26.1373 2C22.9406 4.55422 22.0504 7.70708 22.0706 9.80234C22.0706 10.6404 22.2527 11.4586 22.5158 12.2368C22.5158 12.2368 22.5158 12.2568 22.536 12.2767C23.8511 15.9883 27.7356 19.2011 29.5767 24.3095C29.6779 24.5689 29.7588 24.8283 29.8398 25.0878C32.6723 34.3069 25.1257 37.5994 21.2209 36.7813Z" fill="url(#paint3_linear_447_2)"/>
<path opacity="0.4" fill-rule="evenodd" clip-rule="evenodd" d="M24.1749 36.7214C22.7788 37.0008 21.8279 36.921 21.7875 36.921C25.2674 35.2049 26.7646 31.8125 26.7646 27.8415C26.7646 19.7399 20.1082 16.0881 20.2903 10.1815C20.3712 7.36786 22.4349 3.4168 25.9957 2.03991C26.016 2.03991 26.0362 2.01996 26.0362 2.01996C26.0362 2.01996 26.016 2.01996 26.016 2.03991C22.8395 4.59413 21.9696 7.72704 21.9696 9.8223C21.9696 10.6604 22.1719 11.4586 22.4956 12.2568C22.4956 12.2568 22.4956 12.2767 22.5158 12.2967C23.8309 16.0083 27.6952 19.221 29.5566 24.3295C29.5768 24.4093 29.5971 24.4891 29.6375 24.5689C29.6982 24.7485 29.7589 24.9281 29.8196 25.1277C32.0451 32.2715 27.938 35.8634 24.1749 36.7214Z" fill="url(#paint4_linear_447_2)"/>
<defs>
<linearGradient id="paint0_linear_447_2" x1="12.3368" y1="38.2915" x2="34.8419" y2="15.4737" gradientUnits="userSpaceOnUse">
<stop stop-color="#EF4E37"/>
<stop offset="0.1446" stop-color="#EF523A"/>
<stop offset="0.3004" stop-color="#F15F42"/>
<stop offset="0.4615" stop-color="#F37550"/>
<stop offset="0.6262" stop-color="#F59364"/>
<stop offset="0.7937" stop-color="#F9BA7D"/>
<stop offset="0.9612" stop-color="#FDE99C"/>
<stop offset="1" stop-color="#FEF5A4"/>
</linearGradient>
<linearGradient id="paint1_linear_447_2" x1="13.6508" y1="32.6051" x2="30.9565" y2="32.6051" gradientUnits="userSpaceOnUse">
<stop offset="0.08" stop-color="#E95046"/>
<stop offset="0.1767" stop-color="#EA463F" stop-opacity="0.812"/>
<stop offset="0.594" stop-color="#EC1C24" stop-opacity="0"/>
</linearGradient>
<linearGradient id="paint2_linear_447_2" x1="14.6313" y1="42.2856" x2="33.4438" y2="42.2856" gradientUnits="userSpaceOnUse">
<stop offset="0.3894" stop-color="#ED1C24"/>
<stop offset="0.7003" stop-color="#EC4635"/>
<stop offset="0.92" stop-color="#EB6643"/>
</linearGradient>
<linearGradient id="paint3_linear_447_2" x1="12.6688" y1="30.5436" x2="33.5701" y2="9.35184" gradientUnits="userSpaceOnUse">
<stop offset="0.3947" stop-color="#ED1C24"/>
<stop offset="0.6924" stop-color="#EC4635"/>
<stop offset="0.9027" stop-color="#EB6643"/>
</linearGradient>
<linearGradient id="paint4_linear_447_2" x1="14.7807" y1="29.9914" x2="34.3271" y2="10.1734" gradientUnits="userSpaceOnUse">
<stop offset="0.3947" stop-color="#ED1C24"/>
<stop offset="0.503" stop-color="#ED2126"/>
<stop offset="0.6306" stop-color="#EC2F2C"/>
<stop offset="0.7673" stop-color="#EC4736"/>
<stop offset="0.9027" stop-color="#EB6643"/>
</linearGradient>
</defs>
</svg>
