<svg width="120" height="48" viewBox="0 0 120 48" fill="none" xmlns="http://www.w3.org/2000/svg">
<path d="M108.698 21.9321C108.548 21.3306 107.95 19.0752 103.986 19.0752C101.368 19.0752 99.9471 19.9774 99.6479 20.2029C99.274 20.4285 99.1244 20.7292 99.1244 21.1051C99.1244 21.3306 99.1244 21.5562 99.274 21.8569C99.5731 22.4584 99.9471 22.7591 99.9471 22.7591C99.9471 22.7591 101.742 21.6314 103.687 21.6314C104.659 21.6314 105.332 21.7817 105.706 22.1576C106.23 22.7591 106.23 23.8868 106.23 23.8868C106.155 23.8868 106.005 23.8868 105.931 23.8868C105.931 23.8868 98.3016 23.4357 98.3016 28.6984C98.3016 29.4502 98.4512 30.1268 98.6756 30.6531C98.9748 31.1794 99.7227 32.683 102.49 32.683C105.033 32.683 105.931 31.6305 106.379 31.3297C106.679 32.2319 107.352 32.8334 108.922 32.5326V24.0372C108.922 23.2102 108.848 22.5335 108.698 21.9321ZM106.23 28.548C106.155 30.0517 101.069 31.5553 101.069 28.548C101.069 25.7663 106.23 26.1422 106.23 26.1422V28.548Z" fill="#58595B"/>
<path d="M119.019 22.6087C119.019 22.6087 118.197 21.7817 117.15 21.7817C116.102 21.7817 115.28 22.1576 115.28 23.5861V32.3823H112.512V23.5861C112.512 20.7292 114.233 19.0752 116.925 19.0752C117.823 19.0752 119.019 19.3759 119.543 19.9022C119.917 20.2781 119.917 20.8795 119.618 21.481C119.543 21.8569 119.169 22.3832 119.019 22.6087Z" fill="#58595B"/>
<path d="M76.0879 19.0752C72.1239 19.0752 70.0297 22.1576 70.0297 25.9167C70.0297 29.6757 72.1239 32.7582 76.0879 32.7582C80.052 32.7582 82.1462 29.6757 82.1462 25.9167C82.1462 22.1576 80.052 19.0752 76.0879 19.0752ZM76.0879 30.3524C73.6945 30.3524 72.8718 28.3977 72.8718 25.9919C72.8718 23.5861 73.6945 21.6314 76.0879 21.6314C78.4813 21.6314 79.3041 23.5861 79.3041 25.9919C79.3041 28.3977 78.4813 30.3524 76.0879 30.3524Z" fill="#58595B"/>
<path d="M91.0466 19.0752C88.8028 19.0752 87.8305 20.0526 87.5313 20.3533C86.933 18.9248 84.9136 19.3759 84.9136 19.3759V38.1712H87.6809V31.7808C87.9053 31.9312 88.5037 32.7582 90.7475 32.7582C91.3458 32.7582 96.357 32.7582 96.357 25.6911C96.357 18.6993 91.0466 19.0752 91.0466 19.0752ZM90.3735 30.3524C88.728 30.3524 87.7557 29.1495 87.6809 29.0743V23.135C87.6809 22.7591 87.9053 22.3832 88.3541 22.0824C88.8776 21.7817 89.5508 21.5562 90.2987 21.5562C90.8971 21.5562 93.3652 21.5562 93.3652 25.9167C93.44 27.3451 93.2157 30.3524 90.3735 30.3524Z" fill="#58595B"/>
<path d="M52.9767 19.3007V26.9692C52.9767 30.2772 51.4809 32.8334 47.5168 32.8334C43.5528 32.8334 42.0569 30.2772 42.0569 26.894V19.3007C43.4032 19.0752 44.8242 19.4511 44.8242 21.1803V26.894C44.8242 28.9239 45.7218 30.2772 47.5168 30.2772C49.3119 30.2772 50.2094 28.9239 50.2094 26.894V21.1803C50.2094 19.3759 51.6305 19.0752 52.9767 19.3007Z" fill="#58595B"/>
<path d="M64.4949 30.5779V24.8641C64.4949 22.8342 63.5974 21.481 61.8023 21.481C60.0073 21.481 59.1098 22.8342 59.1098 24.8641V30.5779C59.1098 32.3823 57.6887 32.683 56.3424 32.4574V24.8641C56.3424 21.5562 57.8383 19 61.8023 19C65.7664 19 67.2623 21.5562 67.2623 24.8641V32.5326C65.916 32.7582 64.4949 32.3823 64.4949 30.5779Z" fill="#58595B"/>
<path d="M10.2419 38.2342C6.43952 38.2342 3.37308 35.1518 3.37308 31.3297V19.1237H2.02385C0.919931 19.1237 0 18.199 0 17.0894V12.0343C0 10.9247 0.919931 10 2.02385 10H14.1056C15.2095 10 16.1295 10.9247 16.1295 12.0343V17.151C16.1295 18.2607 15.2095 19.1854 14.1056 19.1854H12.879V28.6789H23.1823V19.1237H21.8944C20.7905 19.1237 19.8705 18.199 19.8705 17.0894V12.0343C19.8705 10.9247 20.7905 10 21.8944 10H33.9762C35.0801 10 36 10.9247 36 12.0343V17.151C36 18.2607 35.0801 19.1854 33.9762 19.1854H32.6269V31.3914C32.6269 35.2135 29.5605 38.2958 25.7581 38.2958H10.2419V38.2342Z" fill="#ED1C24"/>
<path d="M10.2419 37.4328C6.86887 37.4328 4.1704 34.6587 4.1704 31.3297V18.3839H2.08522C1.4106 18.3839 0.858643 17.8291 0.858643 17.151V12.0343C0.858643 11.3562 1.4106 10.8014 2.08522 10.8014H14.167C14.8416 10.8014 15.3936 11.3562 15.3936 12.0343V17.151C15.3936 17.8291 14.8416 18.3839 14.167 18.3839H12.1431V28.8022C12.1431 29.1105 12.3885 29.4187 12.7564 29.4187H23.305C23.6116 29.4187 23.9183 29.1721 23.9183 28.8022V18.3839H21.8944C21.2198 18.3839 20.6678 17.8291 20.6678 17.151V12.0343C20.6678 11.3562 21.2198 10.8014 21.8944 10.8014H33.9762C34.6508 10.8014 35.2028 11.3562 35.2028 12.0343V17.151C35.2028 17.8291 34.6508 18.3839 33.9762 18.3839H31.891V31.3297C31.891 34.7203 29.1312 37.4328 25.8195 37.4328H10.2419Z" fill="url(#paint0_linear_447_7)"/>
<path fill-rule="evenodd" clip-rule="evenodd" d="M4.78369 17.7675V31.3297C4.78369 34.3222 7.2116 36.8163 10.2419 36.8163H25.8195C28.7965 36.8163 31.2777 34.3758 31.2777 31.3297V17.7675H33.9762C34.3121 17.7675 34.5895 17.4886 34.5895 17.151V12.0343C34.5895 11.6967 34.3121 11.4179 33.9762 11.4179H21.8944C21.5585 11.4179 21.2811 11.6967 21.2811 12.0343V17.151C21.2811 17.4886 21.5585 17.7675 21.8944 17.7675H24.5316V28.8022C24.5316 29.5519 23.9098 30.0352 23.305 30.0352H12.7564C12.0106 30.0352 11.5299 29.4102 11.5299 28.8022V17.7675H14.167C14.5029 17.7675 14.7803 17.4886 14.7803 17.151V12.0343C14.7803 11.6967 14.5029 11.4179 14.167 11.4179H2.08522C1.74931 11.4179 1.47193 11.6967 1.47193 12.0343V17.151C1.47193 17.4886 1.74931 17.7675 2.08522 17.7675H4.78369ZM31.891 18.3839H33.9762C34.6508 18.3839 35.2028 17.8291 35.2028 17.151V12.0343C35.2028 11.3562 34.6508 10.8014 33.9762 10.8014H21.8944C21.2198 10.8014 20.6678 11.3562 20.6678 12.0343V17.151C20.6678 17.8291 21.2198 18.3839 21.8944 18.3839H23.9183V28.8022C23.9183 29.1721 23.6116 29.4187 23.305 29.4187H12.7564C12.3885 29.4187 12.1431 29.1105 12.1431 28.8022V18.3839H14.167C14.8416 18.3839 15.3936 17.8291 15.3936 17.151V12.0343C15.3936 11.3562 14.8416 10.8014 14.167 10.8014H2.08522C1.4106 10.8014 0.858643 11.3562 0.858643 12.0343V17.151C0.858643 17.8291 1.4106 18.3839 2.08522 18.3839H4.1704V31.3297C4.1704 34.6587 6.86887 37.4328 10.2419 37.4328H25.8195C29.1312 37.4328 31.891 34.7203 31.891 31.3297V18.3839Z" fill="white"/>
<defs>
<linearGradient id="paint0_linear_447_7" x1="18.0075" y1="39.2453" x2="18.0075" y2="12.4258" gradientUnits="userSpaceOnUse">
<stop stop-color="#003471"/>
<stop offset="1" stop-color="#007DC5"/>
</linearGradient>
</defs>
</svg>
