<svg width="120" height="48" viewBox="0 0 120 48" fill="none" xmlns="http://www.w3.org/2000/svg">
<path d="M108.698 21.9321C108.548 21.3306 107.95 19.0752 103.986 19.0752C101.368 19.0752 99.9471 19.9774 99.6479 20.2029C99.274 20.4285 99.1244 20.7292 99.1244 21.1051C99.1244 21.3306 99.1244 21.5562 99.274 21.8569C99.5731 22.4584 99.9471 22.7591 99.9471 22.7591C99.9471 22.7591 101.742 21.6314 103.687 21.6314C104.659 21.6314 105.332 21.7817 105.706 22.1576C106.23 22.7591 106.23 23.8868 106.23 23.8868C106.155 23.8868 106.005 23.8868 105.931 23.8868C105.931 23.8868 98.3016 23.4357 98.3016 28.6984C98.3016 29.4502 98.4512 30.1268 98.6756 30.6531C98.9748 31.1794 99.7227 32.683 102.49 32.683C105.033 32.683 105.931 31.6305 106.379 31.3297C106.679 32.2319 107.352 32.8334 108.922 32.5326V24.0372C108.922 23.2102 108.848 22.5335 108.698 21.9321ZM106.23 28.548C106.155 30.0517 101.069 31.5553 101.069 28.548C101.069 25.7663 106.23 26.1422 106.23 26.1422V28.548Z" fill="white"/>
<path d="M119.019 22.6087C119.019 22.6087 118.197 21.7817 117.15 21.7817C116.102 21.7817 115.28 22.1576 115.28 23.5861V32.3823H112.512V23.5861C112.512 20.7292 114.233 19.0752 116.925 19.0752C117.823 19.0752 119.019 19.3759 119.543 19.9022C119.917 20.2781 119.917 20.8795 119.618 21.481C119.543 21.8569 119.169 22.3832 119.019 22.6087Z" fill="white"/>
<path d="M76.0879 19.0752C72.1239 19.0752 70.0297 22.1576 70.0297 25.9167C70.0297 29.6757 72.1239 32.7582 76.0879 32.7582C80.052 32.7582 82.1462 29.6757 82.1462 25.9167C82.1462 22.1576 80.052 19.0752 76.0879 19.0752ZM76.0879 30.3524C73.6945 30.3524 72.8718 28.3977 72.8718 25.9919C72.8718 23.5861 73.6945 21.6314 76.0879 21.6314C78.4813 21.6314 79.3041 23.5861 79.3041 25.9919C79.3041 28.3977 78.4813 30.3524 76.0879 30.3524Z" fill="white"/>
<path d="M91.0466 19.0752C88.8028 19.0752 87.8305 20.0526 87.5313 20.3533C86.933 18.9248 84.9136 19.3759 84.9136 19.3759V38.1712H87.6809V31.7808C87.9053 31.9312 88.5037 32.7582 90.7475 32.7582C91.3458 32.7582 96.357 32.7582 96.357 25.6911C96.357 18.6993 91.0466 19.0752 91.0466 19.0752ZM90.3735 30.3524C88.728 30.3524 87.7557 29.1495 87.6809 29.0743V23.135C87.6809 22.7591 87.9053 22.3832 88.3541 22.0824C88.8776 21.7817 89.5508 21.5562 90.2987 21.5562C90.8971 21.5562 93.3652 21.5562 93.3652 25.9167C93.44 27.3451 93.2157 30.3524 90.3735 30.3524Z" fill="white"/>
<path d="M52.9767 19.3007V26.9692C52.9767 30.2772 51.4809 32.8334 47.5168 32.8334C43.5528 32.8334 42.0569 30.2772 42.0569 26.894V19.3007C43.4032 19.0752 44.8242 19.4511 44.8242 21.1803V26.894C44.8242 28.9239 45.7218 30.2772 47.5168 30.2772C49.3119 30.2772 50.2094 28.9239 50.2094 26.894V21.1803C50.2094 19.3759 51.6305 19.0752 52.9767 19.3007Z" fill="white"/>
<path d="M64.4949 30.5779V24.8641C64.4949 22.8342 63.5974 21.481 61.8023 21.481C60.0073 21.481 59.1098 22.8342 59.1098 24.8641V30.5779C59.1098 32.3823 57.6887 32.683 56.3424 32.4574V24.8641C56.3424 21.5562 57.8383 19 61.8023 19C65.7664 19 67.2623 21.5562 67.2623 24.8641V32.5326C65.916 32.7582 64.4949 32.3823 64.4949 30.5779Z" fill="white"/>
<path d="M4.80108 31.3077V17.7454H2.10261C1.7667 17.7454 1.48932 17.4666 1.48932 17.1289V12.0123C1.48932 11.6746 1.7667 11.3958 2.10261 11.3958H14.1844C14.5203 11.3958 14.7977 11.6746 14.7977 12.0123V17.1289C14.7977 17.4666 14.5203 17.7454 14.1844 17.7454H11.5472V28.7802C11.5472 29.3881 12.028 30.0131 12.7738 30.0131H23.3224C23.9272 30.0131 24.5489 29.5299 24.5489 28.7802V17.7454H21.9118C21.5759 17.7454 21.2985 17.4666 21.2985 17.1289V12.0123C21.2985 11.6746 21.5759 11.3958 21.9118 11.3958H33.9936C34.3295 11.3958 34.6069 11.6746 34.6069 12.0123V17.1289C34.6069 17.4666 34.3295 17.7454 33.9936 17.7454H31.2951V31.3077C31.2951 34.3537 28.8139 36.7942 25.8368 36.7942H10.2593C7.22899 36.7942 4.80108 34.3002 4.80108 31.3077Z" fill="white"/>
<path fill-rule="evenodd" clip-rule="evenodd" d="M3.37308 31.3297C3.37308 35.1518 6.43952 38.2342 10.2419 38.2342V38.2958H25.7581C29.5605 38.2958 32.6269 35.2135 32.6269 31.3914V19.1854H33.9762C35.0801 19.1854 36 18.2607 36 17.151V12.0343C36 10.9247 35.0801 10 33.9762 10H21.8944C20.7905 10 19.8705 10.9247 19.8705 12.0343V17.0894C19.8705 18.199 20.7905 19.1237 21.8944 19.1237H23.1823V28.6789H12.879V19.1854H14.1056C15.2095 19.1854 16.1295 18.2607 16.1295 17.151V12.0343C16.1295 10.9247 15.2095 10 14.1056 10H2.02385C0.919932 10 0 10.9247 0 12.0343V17.0894C0 18.199 0.919932 19.1237 2.02385 19.1237H3.37308V31.3297ZM33.9936 18.3619H31.9084V31.3077C31.9084 34.6982 29.1486 37.4107 25.8368 37.4107H10.2593C6.88626 37.4107 4.18779 34.6366 4.18779 31.3077V18.3619H2.10261C1.42799 18.3619 0.876032 17.807 0.876032 17.1289V12.0123C0.876032 11.3341 1.42799 10.7793 2.10261 10.7793H14.1844C14.859 10.7793 15.411 11.3341 15.411 12.0123V17.1289C15.411 17.807 14.859 18.3619 14.1844 18.3619H12.1605V28.7802C12.1605 29.0884 12.4058 29.3966 12.7738 29.3966H23.3224C23.629 29.3966 23.9357 29.15 23.9357 28.7802V18.3619H21.9118C21.2372 18.3619 20.6852 17.807 20.6852 17.1289V12.0123C20.6852 11.3341 21.2372 10.7793 21.9118 10.7793H33.9936C34.6682 10.7793 35.2202 11.3341 35.2202 12.0123V17.1289C35.2202 17.807 34.6682 18.3619 33.9936 18.3619Z" fill="white"/>
<path d="M4.78364 31.3298V17.7675H2.08518C1.74927 17.7675 1.47189 17.4887 1.47189 17.151V12.0344C1.47189 11.6967 1.74927 11.4179 2.08518 11.4179H14.1669C14.5029 11.4179 14.7802 11.6967 14.7802 12.0344V17.151C14.7802 17.4887 14.5029 17.7675 14.1669 17.7675H11.5298V28.8022C11.5298 29.4102 12.0105 30.0352 12.7564 30.0352H23.3049C23.9097 30.0352 24.5315 29.552 24.5315 28.8022V17.7675H21.8944C21.5585 17.7675 21.2811 17.4887 21.2811 17.151V12.0344C21.2811 11.6967 21.5585 11.4179 21.8944 11.4179H33.9761C34.3121 11.4179 34.5894 11.6967 34.5894 12.0344V17.151C34.5894 17.4887 34.3121 17.7675 33.9761 17.7675H31.2777V31.3298C31.2777 34.3758 28.7965 36.8163 25.8194 36.8163H10.2419C7.21155 36.8163 4.78364 34.3223 4.78364 31.3298Z" fill="white"/>
</svg>
